<svg version="1.1" id="Layer_1" xmlns="http://www.w3.org/2000/svg" xmlns:xlink="http://www.w3.org/1999/xlink" x="0px" y="0px"
	 width="100%" viewBox="0 0 1209 770" enable-background="new 0 0 1209 770" xml:space="preserve">
<path fill="#FFFFFF" opacity="1.000000" stroke="none" 
	d="
M876.000000,771.000000 
	C584.036804,771.000000 292.573608,771.000000 1.055200,771.000000 
	C1.055200,514.402527 1.055200,257.805084 1.055200,1.103803 
	C403.879913,1.103803 806.759827,1.103803 1209.819824,1.103803 
	C1209.819824,257.666565 1209.819824,514.333252 1209.819824,771.000000 
	C1098.805054,771.000000 987.652527,771.000000 876.000000,771.000000 
M323.146942,563.239624 
	C343.384308,563.325562 363.621674,563.411499 384.613068,563.765747 
	C385.406586,563.736572 386.200104,563.707397 387.785736,563.875854 
	C388.947937,563.158264 391.074982,562.492981 391.117157,561.714722 
	C391.410828,556.293274 391.272339,550.848389 391.272339,544.762817 
	C378.467651,544.762817 365.784119,544.762817 352.897369,544.762817 
	C352.897369,540.891235 352.897369,537.672180 352.897369,534.156494 
	C365.103790,534.156494 377.000336,534.156494 389.247070,534.156494 
	C389.161591,532.215210 389.089874,530.586426 389.257446,528.284668 
	C389.253021,527.126465 389.248596,525.968262 389.492126,524.404175 
	C389.550323,524.054688 389.442841,523.766968 389.414185,522.768982 
	C389.357239,520.881042 389.300293,518.993164 389.527161,516.457886 
	C388.679871,515.954468 387.837341,515.025574 386.984528,515.015991 
	C380.993103,514.948792 374.999542,515.071167 368.079254,514.996094 
	C362.992706,514.996094 357.906189,514.996094 353.061584,514.996094 
	C353.061584,510.945129 353.061584,507.678925 353.061584,503.920471 
	C365.788483,503.920471 378.163208,503.920471 390.520752,503.920471 
	C390.520752,497.340698 390.520752,491.279907 390.520752,485.298248 
	C367.607025,485.298248 345.047607,485.298248 322.150299,485.298248 
	C322.150299,511.083557 322.150299,536.528381 322.078064,562.554260 
	C322.204590,562.702637 322.331085,562.850952 323.146942,563.239624 
M662.584656,165.974960 
	C662.584656,165.974960 662.174622,165.935867 661.873962,165.294052 
	C659.241028,164.226456 656.608032,163.158844 653.356750,161.740921 
	C642.306885,156.267654 630.244934,155.189514 618.283569,154.085205 
	C603.619507,152.731354 589.273010,155.463577 575.225586,159.326569 
	C570.508972,160.623596 566.273315,163.669968 561.054443,165.940506 
	C559.687744,166.391830 558.114807,166.549438 556.987366,167.341400 
	C548.757996,173.122116 540.279419,178.619400 532.536560,185.003159 
	C523.061096,192.815414 515.384766,202.452560 509.966400,213.467148 
	C505.665833,222.209488 501.386902,231.278549 499.257477,240.690994 
	C496.727478,251.874100 496.508179,263.579956 495.122589,275.919495 
	C496.818909,286.023285 497.348938,296.502594 500.455597,306.152313 
	C506.818481,325.916626 517.943970,342.970093 533.570984,356.959778 
	C549.300293,371.040924 567.429932,380.263916 588.853333,384.985626 
	C590.994019,385.218201 593.145813,385.376099 595.273621,385.694580 
	C622.694092,389.798737 648.337891,384.374939 671.889587,370.178009 
	C692.236633,357.912811 707.548645,340.760925 717.571167,319.032806 
	C724.180481,304.704102 727.600769,289.688019 728.233582,273.222382 
	C727.521545,265.313110 726.873413,257.397461 726.083496,249.495972 
	C724.667175,235.328262 718.898010,222.587616 711.924561,210.551392 
	C705.234802,199.004852 696.544434,188.704422 685.930908,180.534851 
	C678.802002,175.047470 670.660339,170.875824 662.584656,165.974960 
M541.970886,678.661743 
	C542.020813,679.108032 542.070679,679.554382 542.238953,680.762756 
	C543.489685,680.829651 544.740356,680.896484 546.909180,681.175171 
	C559.510071,681.175171 572.110962,681.175171 584.749329,681.175171 
	C584.749329,677.425049 584.749329,673.848083 584.749329,669.866394 
	C576.710571,669.866394 568.951782,669.866394 561.219971,669.866394 
	C561.219971,667.717529 561.219971,665.989014 561.219971,663.717041 
	C568.756287,663.717041 575.976196,663.717041 583.300171,663.717041 
	C583.300171,659.421875 583.300171,655.680054 583.300171,651.239624 
	C575.789490,651.239624 568.562256,651.239624 561.287476,651.239624 
	C561.287476,648.781189 561.287476,647.035339 561.287476,644.709351 
	C569.235291,644.709351 576.957275,644.709351 584.780762,644.709351 
	C584.780762,640.536316 584.780762,636.951233 584.780762,633.308594 
	C570.503845,633.308594 556.479858,633.308594 542.226135,633.308594 
	C542.226135,640.797119 542.226135,647.927856 542.003784,655.963013 
	C542.039978,663.308289 542.076233,670.653564 541.970886,678.661743 
M913.875122,566.009094 
	C914.594910,564.560852 915.934204,563.115845 915.941956,561.663818 
	C916.066772,538.273376 916.022278,514.882080 916.016174,491.490997 
	C916.015808,490.046417 916.016052,488.601837 916.016052,487.135895 
	C914.355591,487.135895 913.205017,487.135895 911.119934,486.993011 
	C902.547852,486.993011 893.975830,486.993011 885.281006,486.993011 
	C885.281006,513.644836 885.281006,539.695435 885.281006,565.852844 
	C894.737305,565.852844 903.869995,565.852844 913.875122,566.009094 
M116.360695,484.309998 
	C93.989525,484.309998 71.618362,484.309998 49.197689,484.309998 
	C49.197689,510.185883 49.197689,535.895447 49.197689,561.672241 
	C59.490253,561.672241 69.522423,561.672241 80.044861,561.672241 
	C80.044861,552.614136 80.044861,543.883484 80.044861,534.820251 
	C92.094666,534.820251 103.652298,534.820251 115.271225,534.820251 
	C115.271225,528.084961 115.271225,521.706726 115.271225,515.277527 
	C108.288895,515.277527 101.643150,515.277527 94.090141,515.059021 
	C90.051392,515.090027 86.012634,515.121033 81.362801,515.008545 
	C80.948196,514.954651 80.533592,514.900757 80.062981,513.948853 
	C80.003143,510.625031 79.943298,507.301208 80.321602,503.208893 
	C84.873497,503.071960 89.425400,502.935028 94.900894,503.009949 
	C102.244591,503.009949 109.588280,503.009949 116.757294,503.009949 
	C116.757294,496.539490 116.757294,490.784668 116.360695,484.309998 
M674.154297,561.187256 
	C674.154297,556.244995 674.154297,551.302673 674.154297,545.795410 
	C661.266174,545.795410 648.539673,545.795410 635.844727,545.795410 
	C635.844727,541.962158 635.844727,538.698914 635.844727,534.992310 
	C648.044006,534.992310 659.964050,534.992310 672.228882,534.992310 
	C672.228882,528.461914 672.228882,522.383728 672.228882,515.830627 
	C660.051575,515.830627 648.113342,515.830627 635.503113,515.830627 
	C635.678467,511.984406 635.830933,508.639313 636.007080,504.774841 
	C648.914917,504.774841 661.304810,504.774841 673.618774,504.774841 
	C673.618774,499.090851 673.618774,493.947021 673.834595,488.002655 
	C672.505432,487.320404 671.185181,486.063385 669.845703,486.042480 
	C651.217529,485.751648 632.586731,485.627045 613.956543,485.470825 
	C611.066101,485.446594 608.175293,485.467407 604.999329,485.467407 
	C604.999329,495.774506 605.002380,505.082581 604.998657,514.390686 
	C604.992310,530.197998 604.989624,546.005249 604.963989,561.812561 
	C604.960388,564.027832 604.822754,566.259644 608.708130,564.373718 
	C609.616150,564.295959 610.524170,564.218140 612.179932,564.679688 
	C631.809692,564.799927 651.439575,564.899780 671.068909,565.068604 
	C673.301331,565.087830 674.709961,564.700439 674.154297,561.187256 
M772.819031,486.356140 
	C761.420227,486.356140 750.021484,486.356140 738.207764,486.356140 
	C738.207764,512.716492 738.207764,538.718994 738.207764,565.503845 
	C747.595215,565.503845 757.017212,565.525879 766.438110,565.438477 
	C766.906494,565.434082 767.366089,564.478882 767.988770,563.059387 
	C767.988770,555.128418 767.988770,547.197388 767.988770,539.016663 
	C771.404846,539.016663 774.040039,539.127441 776.662415,538.991577 
	C780.970459,538.768494 783.333679,540.456177 784.065247,544.944458 
	C785.179565,551.781982 786.755371,558.544312 788.241333,565.860962 
	C793.447693,565.860962 798.423096,565.861023 803.398499,565.861023 
	C808.459167,565.861023 813.519897,565.860962 818.987488,565.860962 
	C817.685852,559.645874 816.018982,554.201294 815.499268,548.649292 
	C814.594116,538.979004 809.793091,532.470459 800.782776,528.451660 
	C803.335327,527.160034 805.529053,526.001221 807.763611,524.927490 
	C818.639832,519.701416 821.715759,502.814514 812.297363,493.794403 
	C806.806641,488.535858 800.044373,487.156891 792.217590,486.737610 
	C790.660278,486.780518 789.102905,486.823425 786.711487,486.592804 
	C782.333252,486.689789 777.954956,486.786774 772.819031,486.356140 
M258.943756,558.379211 
	C258.636200,556.257446 258.365936,554.129517 258.014252,552.015137 
	C256.879883,545.195251 256.351044,538.013550 251.274048,532.754211 
	C248.595398,529.979370 244.913651,528.172913 241.630905,525.891724 
	C242.031921,525.702759 242.585922,525.307922 243.197250,525.173279 
	C258.315063,521.843201 262.648071,506.616730 255.466431,494.168549 
	C251.634033,487.525726 244.653534,485.334320 237.401749,485.051270 
	C225.429016,484.584015 213.437775,484.563263 201.453491,484.429291 
	C194.364578,484.350037 187.274063,484.414795 179.803833,484.414795 
	C179.803833,510.705048 179.803833,536.287292 179.803833,562.366028 
	C189.773743,562.366028 199.623581,562.366028 210.088150,562.366028 
	C210.088150,553.568909 210.088150,544.990662 210.088150,536.483643 
	C222.601212,535.527039 225.016312,537.313416 227.129562,548.942139 
	C227.914871,553.263306 228.399094,557.639282 229.525833,562.675781 
	C239.701508,562.675781 249.877167,562.675781 260.497925,562.675781 
	C259.877838,561.265991 259.432404,560.253174 258.943756,558.379211 
M541.009338,538.038452 
	C541.068420,536.208435 541.011292,534.365967 541.205933,532.550476 
	C542.312561,522.226929 542.178833,512.093750 538.058716,502.264435 
	C535.139771,495.300812 529.801941,490.301392 523.200745,488.337494 
	C515.379822,486.010803 506.893219,485.482147 498.652954,485.111176 
	C487.345245,484.602112 475.997833,484.973480 464.667450,484.967834 
	C463.082733,484.967041 461.498016,484.967712 459.512634,484.967712 
	C459.512634,511.597748 459.512634,537.505920 459.512634,563.784546 
	C476.567810,563.784546 493.379608,564.320557 510.130768,563.545593 
	C517.853394,563.188354 525.603088,560.994629 531.682800,554.943848 
	C536.321411,550.327393 538.654114,544.708923 541.009338,538.038452 
M1111.685303,566.025635 
	C1119.956787,566.025635 1128.228271,566.025635 1136.976318,566.025635 
	C1136.976318,555.239136 1136.976318,545.030090 1136.976318,534.821106 
	C1142.703857,543.086243 1147.514893,551.594299 1152.508301,559.993835 
	C1153.828613,562.214600 1155.633057,565.788818 1157.347900,565.868164 
	C1168.743896,566.395203 1180.176025,566.141235 1191.779663,566.141235 
	C1191.628784,565.519897 1191.638550,565.000610 1191.398804,564.654114 
	C1183.124146,552.696472 1174.706421,540.834290 1166.666748,528.721191 
	C1165.537476,527.019836 1165.205566,523.379639 1166.263184,521.864014 
	C1173.431396,511.590942 1181.098389,501.666901 1188.514648,491.564240 
	C1189.165649,490.677429 1189.173950,489.318787 1189.507568,488.079346 
	C1177.907837,488.079346 1166.753784,488.079346 1155.875000,488.079346 
	C1149.767090,497.859772 1143.783081,507.441956 1137.799072,517.024109 
	C1137.505249,516.891968 1137.211426,516.759827 1136.917603,516.627686 
	C1136.917603,507.193390 1136.917603,497.759125 1136.917603,488.084229 
	C1126.864136,488.084229 1117.123291,488.084229 1106.897095,488.084229 
	C1106.897095,514.029297 1106.897095,539.774780 1106.897095,565.795593 
	C1108.166016,565.871399 1109.451050,565.948181 1111.685303,566.025635 
M976.206665,534.813171 
	C978.860779,543.517944 982.333435,551.740356 989.995361,557.362854 
	C997.032166,562.526550 1004.819946,565.784119 1013.582764,566.688904 
	C1023.872131,567.751282 1033.979614,567.016174 1043.825439,564.733032 
	C1043.825439,557.454529 1043.825439,550.754395 1043.825439,544.890381 
	C1036.908447,545.258972 1030.347412,545.798523 1023.779297,545.902344 
	C1017.845093,545.996155 1013.123230,542.584473 1010.236145,538.086609 
	C1005.436829,530.609741 1005.105408,522.183777 1010.318176,514.689148 
	C1015.202454,507.666656 1022.972717,506.111359 1031.023560,506.579437 
	C1035.328613,506.829773 1039.585693,507.908447 1044.151855,508.660675 
	C1044.151855,501.528900 1044.151855,494.934998 1044.151855,487.815582 
	C1037.819580,487.488953 1031.636963,486.895599 1025.457642,486.927368 
	C1019.100586,486.960052 1012.691284,487.219116 1006.412476,488.125183 
	C1002.780518,488.649261 999.203247,490.338104 995.878479,492.043182 
	C988.647461,495.751678 983.298950,501.264130 979.390076,508.594421 
	C975.016174,516.796631 976.126770,525.367920 976.206665,534.813171 
M209.461853,643.005188 
	C208.968109,640.590820 208.747437,638.072327 207.880432,635.800354 
	C207.341385,634.387878 205.857910,632.340271 204.739883,632.302368 
	C196.140762,632.010986 187.527313,632.142090 178.514191,632.142090 
	C178.514191,648.207397 178.514191,663.930542 178.514191,679.898071 
	C183.632339,679.898071 188.560043,679.898071 194.188904,679.898071 
	C194.188904,669.835266 194.188904,659.845520 194.188904,649.855774 
	C194.688553,649.781677 195.188202,649.707520 195.687851,649.633423 
	C198.397263,659.816284 201.106674,669.999146 203.834717,680.251953 
	C213.172745,680.251953 221.920593,680.251953 230.811172,680.251953 
	C230.811172,664.099182 230.811172,648.236145 230.811172,632.414185 
	C225.462250,632.414185 220.540131,632.414185 215.158005,632.414185 
	C215.158005,642.925415 215.158005,653.132568 215.158005,663.339661 
	C214.955399,663.348450 214.752777,663.357239 214.550171,663.365967 
	C212.986969,656.822083 211.423767,650.278259 209.461853,643.005188 
M684.464905,665.667542 
	C692.028870,665.577881 692.035095,665.576660 693.424072,672.762939 
	C693.988281,675.681763 694.518616,678.607178 695.098999,681.714966 
	C701.576660,681.714966 707.782043,681.714966 714.067566,681.714966 
	C712.233887,673.165649 713.741577,663.436829 704.735107,659.708557 
	C707.373718,656.826355 711.745789,654.159790 712.732666,650.564148 
	C715.347534,641.037109 709.922302,633.758972 699.949036,633.211609 
	C688.389465,632.577271 676.768372,633.063904 664.791870,633.063904 
	C664.791870,649.345032 664.791870,665.228027 664.791870,681.504272 
	C670.961426,681.504272 676.833435,681.504272 682.715576,681.504272 
	C683.001770,676.098083 683.272095,670.992126 684.464905,665.667542 
M89.218796,631.768372 
	C86.087021,631.768372 82.955238,631.768372 79.416336,631.768372 
	C79.416336,634.408569 79.440056,636.536072 79.412094,638.662903 
	C79.309219,646.487488 79.241226,654.313171 79.052788,662.135803 
	C78.964218,665.812500 77.107216,668.036987 73.245659,668.148987 
	C69.324806,668.262756 68.132874,665.576660 67.722725,662.389893 
	C67.469261,660.420593 67.599594,658.398865 67.597198,656.400696 
	C67.587517,648.313477 67.593178,640.226257 67.593178,631.794434 
	C61.230122,631.794434 55.199749,631.794434 48.974377,631.794434 
	C48.974377,643.383606 48.388275,654.582764 49.292980,665.660156 
	C49.608677,669.525574 52.782658,674.258972 56.074001,676.567871 
	C64.984329,682.818604 75.439430,681.596191 85.338753,679.450500 
	C90.071785,678.424744 95.202911,675.143921 95.722343,669.734680 
	C96.920654,657.255798 97.136246,644.682556 97.769089,631.768127 
	C94.401070,631.768127 92.246597,631.768127 89.218796,631.768372 
M414.990753,650.558777 
	C417.670105,658.492249 420.549042,666.365967 422.950745,674.382629 
	C424.297546,678.878052 426.186554,681.653687 431.473328,681.112915 
	C435.425598,680.708740 439.488434,680.694031 443.435425,681.121399 
	C447.526062,681.564331 448.873322,679.466431 450.030365,676.151123 
	C452.839600,668.101746 455.943451,660.155457 458.900208,652.157104 
	C461.212463,645.902161 463.482025,639.631348 465.917786,632.964661 
	C460.138947,632.964661 454.975647,632.778381 449.842987,633.092346 
	C448.517578,633.173340 446.822937,634.564026 446.121979,635.814819 
	C445.024323,637.773560 444.660248,640.136230 443.928589,642.308655 
	C441.947449,648.190796 439.936462,654.062988 437.566437,661.029053 
	C434.771545,651.542297 432.383820,643.209412 429.786316,634.942383 
	C429.498657,634.026855 428.033081,632.901733 427.080414,632.869751 
	C421.324860,632.676819 415.559570,632.773804 408.889008,632.773804 
	C410.991364,639.024658 412.812286,644.438599 414.990753,650.558777 
M833.121338,676.533142 
	C838.766663,668.097595 836.792725,657.972717 828.234009,653.912231 
	C824.432495,652.108826 819.973206,651.739258 815.913635,650.410034 
	C814.183289,649.843384 812.711914,648.486145 811.122925,647.488098 
	C813.057678,646.511902 814.923706,644.933716 816.943665,644.702942 
	C819.860718,644.369751 822.917664,644.834106 825.861511,645.297241 
	C828.246521,645.672363 830.552795,646.547424 833.310364,647.317017 
	C833.310364,642.606506 833.310364,638.530945 833.310364,633.302063 
	C824.053589,633.302063 814.749573,632.016296 805.977722,633.627747 
	C795.031921,635.638428 789.162842,643.784607 793.373169,654.271118 
	C796.079224,661.011169 802.415527,662.314575 808.439941,664.000671 
	C811.653809,664.900269 814.883484,665.743469 818.105957,666.612122 
	C814.467407,671.294434 810.057007,671.043152 805.777588,670.606506 
	C801.419128,670.161865 797.111145,669.223145 792.782410,668.500977 
	C791.387817,680.354431 791.677246,681.043274 803.152283,682.592346 
	C813.465515,683.984497 823.712830,683.994446 833.121338,676.533142 
M1166.535767,681.558472 
	C1167.702148,681.561584 1168.894287,681.408081 1170.030396,681.594971 
	C1174.912720,682.398071 1176.912720,680.329285 1176.019897,675.564392 
	C1174.333862,666.566650 1180.089233,660.084534 1183.657104,652.911499 
	C1186.925415,646.340637 1190.616699,639.980164 1194.433960,632.952026 
	C1188.265137,632.952026 1182.949463,632.797485 1177.655273,633.066833 
	C1176.418701,633.129700 1174.654663,634.371094 1174.160400,635.514282 
	C1171.820557,640.926575 1169.836914,646.492798 1167.602783,652.326538 
	C1166.798950,651.111572 1165.950684,650.245911 1165.590698,649.210449 
	C1164.298340,645.494324 1163.446411,641.599792 1161.871460,638.017395 
	C1161.018188,636.077026 1159.169067,633.359375 1157.543701,633.192749 
	C1151.794067,632.603577 1145.947144,632.963318 1139.288940,632.963318 
	C1143.095093,640.026367 1146.589722,646.483215 1150.057495,652.954346 
	C1153.993042,660.298279 1158.921265,667.312561 1157.454102,676.399109 
	C1157.204956,677.942932 1157.591431,679.589294 1157.705566,681.557434 
	C1160.650024,681.557434 1163.121948,681.557434 1166.535767,681.558472 
M1024.407959,647.024536 
	C1026.174438,647.024536 1027.941040,647.024536 1030.217529,647.024536 
	C1030.217529,658.834229 1030.217529,670.041443 1030.217529,681.320923 
	C1036.675049,681.320923 1042.611938,681.320923 1049.061523,681.320923 
	C1049.061523,669.883606 1049.061523,658.658020 1049.061523,647.000122 
	C1054.641357,647.000122 1059.722534,647.000122 1064.911499,647.000122 
	C1064.911499,642.160706 1064.911499,637.772217 1064.911499,633.208618 
	C1047.716675,633.208618 1030.821045,633.208618 1013.720825,633.208618 
	C1013.720825,637.869446 1013.720825,642.284302 1013.720825,647.024719 
	C1017.155396,647.024719 1020.301392,647.024719 1024.407959,647.024536 
M326.289368,632.333313 
	C321.710052,632.333313 317.130737,632.333313 312.272552,632.333313 
	C312.272552,648.888062 312.272552,664.491089 312.272552,680.466492 
	C318.619385,680.466492 324.855865,680.466492 331.490631,680.466492 
	C331.490631,664.610596 331.490631,648.848206 331.490631,632.680481 
	C330.125854,632.579102 328.675476,632.471375 326.289368,632.333313 
M935.194214,659.500000 
	C935.194214,650.744507 935.194214,641.988953 935.194214,633.221802 
	C928.460815,633.221802 922.386841,633.221802 916.276245,633.221802 
	C916.276245,649.389526 916.276245,665.279053 916.276245,681.279846 
	C922.671204,681.279846 928.749695,681.279846 935.194336,681.279846 
	C935.194336,674.124695 935.194336,667.312317 935.194214,659.500000 
z"/>
<path fill="#234392" opacity="1.000000" stroke="none" 
	d="
M540.943054,538.457458 
	C538.654114,544.708923 536.321411,550.327393 531.682800,554.943848 
	C525.603088,560.994629 517.853394,563.188354 510.130768,563.545593 
	C493.379608,564.320557 476.567810,563.784546 459.512634,563.784546 
	C459.512634,537.505920 459.512634,511.597748 459.512634,484.967712 
	C461.498016,484.967712 463.082733,484.967041 464.667450,484.967834 
	C475.997833,484.973480 487.345245,484.602112 498.652954,485.111176 
	C506.893219,485.482147 515.379822,486.010803 523.200745,488.337494 
	C529.801941,490.301392 535.139771,495.300812 538.058716,502.264435 
	C542.178833,512.093750 542.312561,522.226929 541.205933,532.550476 
	C541.011292,534.365967 541.068420,536.208435 540.943054,538.457458 
M489.825531,541.768005 
	C490.023499,542.549927 489.967438,543.751282 490.458801,544.048828 
	C495.324005,546.995972 506.088165,542.907166 508.283447,537.611938 
	C511.330688,530.261780 511.483185,522.755615 509.909271,515.142334 
	C507.934814,505.591583 499.199310,501.233398 489.345795,505.643921 
	C489.220428,511.714325 488.958923,517.785828 489.009155,523.854858 
	C489.056335,529.556519 489.432861,535.255432 489.825531,541.768005 
z"/>
<path fill="#244493" opacity="1.000000" stroke="none" 
	d="
M229.020599,561.990234 
	C228.399094,557.639282 227.914871,553.263306 227.129562,548.942139 
	C225.016312,537.313416 222.601212,535.527039 210.088150,536.483643 
	C210.088150,544.990662 210.088150,553.568909 210.088150,562.366028 
	C199.623581,562.366028 189.773743,562.366028 179.803833,562.366028 
	C179.803833,536.287292 179.803833,510.705048 179.803833,484.414795 
	C187.274063,484.414795 194.364578,484.350037 201.453491,484.429291 
	C213.437775,484.563263 225.429016,484.584015 237.401749,485.051270 
	C244.653534,485.334320 251.634033,487.525726 255.466431,494.168549 
	C262.648071,506.616730 258.315063,521.843201 243.197250,525.173279 
	C242.585922,525.307922 242.031921,525.702759 241.630905,525.891724 
	C244.913651,528.172913 248.595398,529.979370 251.274048,532.754211 
	C256.351044,538.013550 256.879883,545.195251 258.014252,552.015137 
	C258.365936,554.129517 258.636200,556.257446 258.955475,559.206177 
	C257.538422,560.686401 256.120789,561.875061 254.679123,561.904968 
	C246.129379,562.082336 237.574051,561.991089 229.020599,561.990234 
M210.837585,502.020935 
	C210.065491,502.602325 208.646286,503.159637 208.623627,503.768951 
	C208.441025,508.678955 208.521317,513.598755 208.521317,518.909790 
	C212.704559,518.909790 216.898331,519.453979 220.873489,518.754944 
	C224.757217,518.072083 228.010849,516.268738 228.269135,511.018860 
	C228.528702,505.743164 226.019394,503.247040 221.665848,502.330627 
	C218.483398,501.660706 215.071243,502.081970 210.837585,502.020935 
z"/>
<path fill="#244492" opacity="1.000000" stroke="none" 
	d="
M792.814575,487.009796 
	C800.044373,487.156891 806.806641,488.535858 812.297363,493.794403 
	C821.715759,502.814514 818.639832,519.701416 807.763611,524.927490 
	C805.529053,526.001221 803.335327,527.160034 800.782776,528.451660 
	C809.793091,532.470459 814.594116,538.979004 815.499268,548.649292 
	C816.018982,554.201294 817.685852,559.645874 818.987488,565.860962 
	C813.519897,565.860962 808.459167,565.861023 803.398499,565.861023 
	C798.423096,565.861023 793.447693,565.860962 788.241333,565.860962 
	C786.755371,558.544312 785.179565,551.781982 784.065247,544.944458 
	C783.333679,540.456177 780.970459,538.768494 776.662415,538.991577 
	C774.040039,539.127441 771.404846,539.016663 767.988770,539.016663 
	C767.988770,547.197388 767.988770,555.128418 767.451904,563.526062 
	C759.104858,563.999023 751.290466,563.855774 743.486572,564.079712 
	C740.007568,564.179504 738.899902,563.063110 738.920715,559.557678 
	C739.056152,536.792725 739.073486,514.026123 738.927429,491.261353 
	C738.903442,487.523315 740.446228,486.898163 743.668152,486.935974 
	C753.636047,487.052887 763.606995,486.919769 773.576721,486.883789 
	C777.954956,486.786774 782.333252,486.689789 787.577148,486.763733 
	C789.900085,486.959717 791.357361,486.984772 792.814575,487.009796 
M777.064575,520.950012 
	C779.287598,520.344116 782.161560,520.387634 783.573242,518.972412 
	C785.452454,517.088623 787.226990,514.022583 787.115479,511.551575 
	C787.015625,509.337128 784.645203,505.856567 782.672058,505.365936 
	C777.817261,504.158813 772.614624,504.350555 767.391846,503.968048 
	C767.391846,509.947235 767.391846,515.285706 767.391846,520.987793 
	C770.570312,520.987793 773.371216,520.987793 777.064575,520.950012 
z"/>
<path fill="#234392" opacity="1.000000" stroke="none" 
	d="
M1111.210693,566.025269 
	C1109.451050,565.948181 1108.166016,565.871399 1106.897095,565.795593 
	C1106.897095,539.774780 1106.897095,514.029297 1106.897095,488.084229 
	C1117.123291,488.084229 1126.864136,488.084229 1136.917603,488.084229 
	C1136.917603,497.759125 1136.917603,507.193390 1136.917603,516.627686 
	C1137.211426,516.759827 1137.505249,516.891968 1137.799072,517.024109 
	C1143.783081,507.441956 1149.767090,497.859772 1155.875000,488.079346 
	C1166.753784,488.079346 1177.907837,488.079346 1189.507568,488.079346 
	C1189.173950,489.318787 1189.165649,490.677429 1188.514648,491.564240 
	C1181.098389,501.666901 1173.431396,511.590942 1166.263184,521.864014 
	C1165.205566,523.379639 1165.537476,527.019836 1166.666748,528.721191 
	C1174.706421,540.834290 1183.124146,552.696472 1191.398804,564.654114 
	C1191.638550,565.000610 1191.628784,565.519897 1191.779663,566.141235 
	C1180.176025,566.141235 1168.743896,566.395203 1157.347900,565.868164 
	C1155.633057,565.788818 1153.828613,562.214600 1152.508301,559.993835 
	C1147.514893,551.594299 1142.703857,543.086243 1136.976318,534.821106 
	C1136.976318,545.030090 1136.976318,555.239136 1136.976318,566.025635 
	C1128.228271,566.025635 1119.956787,566.025635 1111.210693,566.025269 
z"/>
<path fill="#234392" opacity="1.000000" stroke="none" 
	d="
M673.618774,488.803192 
	C673.618774,493.947021 673.618774,499.090851 673.618774,504.774841 
	C661.304810,504.774841 648.914917,504.774841 636.007080,504.774841 
	C635.830933,508.639313 635.678467,511.984406 635.503113,515.830627 
	C648.113342,515.830627 660.051575,515.830627 672.228882,515.830627 
	C672.228882,522.383728 672.228882,528.461914 672.228882,534.992310 
	C659.964050,534.992310 648.044006,534.992310 635.844727,534.992310 
	C635.844727,538.698914 635.844727,541.962158 635.844727,545.795410 
	C648.539673,545.795410 661.266174,545.795410 674.154297,545.795410 
	C674.154297,551.302673 674.154297,556.244995 673.749756,561.846436 
	C671.532410,563.006531 669.723022,563.929138 667.906433,563.943542 
	C649.082336,564.093201 630.257080,564.096375 611.432190,564.140320 
	C610.524170,564.218140 609.616150,564.295959 608.156250,563.932129 
	C607.066223,561.687012 606.068604,559.885620 606.059814,558.079468 
	C605.954895,536.437683 606.104187,514.794250 605.913208,493.153656 
	C605.873047,488.599823 607.405396,486.898834 611.903137,486.926910 
	C630.881042,487.045349 649.860413,486.939056 668.838196,487.064697 
	C670.435486,487.075256 672.025452,488.197449 673.618774,488.803192 
z"/>
<path fill="#244493" opacity="1.000000" stroke="none" 
	d="
M389.243347,517.105225 
	C389.300293,518.993164 389.357239,520.881042 389.241669,523.369934 
	C389.034973,524.269958 389.093323,524.549683 389.244202,524.810059 
	C389.248596,525.968262 389.253021,527.126465 389.093597,529.015137 
	C387.016327,530.832214 385.128693,532.801819 383.185211,532.858582 
	C372.603394,533.167725 362.007782,533.005554 351.362122,533.005554 
	C347.528900,543.729370 351.071442,546.644836 360.246796,546.099792 
	C368.700714,545.597595 377.209473,545.920715 385.690643,546.071350 
	C387.091705,546.096130 389.703644,547.164673 389.679047,547.644470 
	C389.401184,553.069763 392.331970,559.122314 386.993622,563.678162 
	C386.200104,563.707397 385.406586,563.736572 383.942078,563.442993 
	C380.499664,562.762146 377.728180,562.403992 374.495422,562.039185 
	C369.370911,562.036926 364.707672,562.041443 359.574158,562.035522 
	C353.734222,562.025391 348.364594,562.025696 342.527130,562.021179 
	C335.422974,562.002014 328.786652,561.987671 322.150299,561.973267 
	C322.150299,536.528381 322.150299,511.083557 322.150299,485.298248 
	C345.047607,485.298248 367.607025,485.298248 390.520752,485.298248 
	C390.520752,491.279907 390.520752,497.340698 390.520752,503.920471 
	C378.163208,503.920471 365.788483,503.920471 353.061584,503.920471 
	C353.061584,507.678925 353.061584,510.945129 353.061584,514.996094 
	C357.906189,514.996094 362.992706,514.996094 368.860168,515.330322 
	C371.611115,515.774780 373.583710,515.851562 375.550629,516.001831 
	C380.116302,516.350708 384.679260,516.735168 389.243347,517.105225 
z"/>
<path fill="#244392" opacity="1.000000" stroke="none" 
	d="
M93.977295,502.798096 
	C89.425400,502.935028 84.873497,503.071960 79.826897,503.897430 
	C79.594452,508.006287 79.856720,511.426605 80.118980,514.846924 
	C80.533592,514.900757 80.948196,514.954651 81.983994,515.345703 
	C86.735924,515.547791 90.866669,515.412659 94.997406,515.277466 
	C101.643150,515.277527 108.288895,515.277527 115.271225,515.277527 
	C115.271225,521.706726 115.271225,528.084961 115.271225,534.820251 
	C103.652298,534.820251 92.094666,534.820251 80.044861,534.820251 
	C80.044861,543.883484 80.044861,552.614136 80.044861,561.672241 
	C69.522423,561.672241 59.490253,561.672241 49.197689,561.672241 
	C49.197689,535.895447 49.197689,510.185883 49.197689,484.309998 
	C71.618362,484.309998 93.989525,484.309998 116.316833,485.001038 
	C116.185333,489.474457 115.824074,493.275818 116.085495,497.033875 
	C116.357475,500.943787 115.033386,502.201416 111.085266,502.109894 
	C105.390991,501.977875 99.680733,502.535034 93.977295,502.798096 
z"/>
<path fill="#244391" opacity="1.000000" stroke="none" 
	d="
M976.122437,534.377563 
	C976.126770,525.367920 975.016174,516.796631 979.390076,508.594421 
	C983.298950,501.264130 988.647461,495.751678 995.878479,492.043182 
	C999.203247,490.338104 1002.780518,488.649261 1006.412476,488.125183 
	C1012.691284,487.219116 1019.100586,486.960052 1025.457642,486.927368 
	C1031.636963,486.895599 1037.819580,487.488953 1044.151855,487.815582 
	C1044.151855,494.934998 1044.151855,501.528900 1044.151855,508.660675 
	C1039.585693,507.908447 1035.328613,506.829773 1031.023560,506.579437 
	C1022.972717,506.111359 1015.202454,507.666656 1010.318176,514.689148 
	C1005.105408,522.183777 1005.436829,530.609741 1010.236145,538.086609 
	C1013.123230,542.584473 1017.845093,545.996155 1023.779297,545.902344 
	C1030.347412,545.798523 1036.908447,545.258972 1043.825439,544.890381 
	C1043.825439,550.754395 1043.825439,557.454529 1043.825439,564.733032 
	C1033.979614,567.016174 1023.872131,567.751282 1013.582764,566.688904 
	C1004.819946,565.784119 997.032166,562.526550 989.995361,557.362854 
	C982.333435,551.740356 978.860779,543.517944 976.122437,534.377563 
z"/>
<path fill="#254490" opacity="1.000000" stroke="none" 
	d="
M727.971680,273.944458 
	C727.600769,289.688019 724.180481,304.704102 717.571167,319.032806 
	C707.548645,340.760925 692.236633,357.912811 671.889587,370.178009 
	C648.337891,384.374939 622.694092,389.798737 595.273621,385.694580 
	C593.145813,385.376099 590.994019,385.218201 588.538574,384.505035 
	C590.605103,383.612640 592.986389,383.200836 595.792358,382.751953 
	C600.949402,383.185425 605.681580,383.655975 610.933228,384.178162 
	C610.933228,378.457642 610.933228,373.212708 611.397095,367.968719 
	C618.549927,367.164581 625.278992,366.593994 631.911743,365.459900 
	C635.472778,364.851013 638.868286,363.273956 642.715576,362.137817 
	C658.035461,358.208954 670.574341,349.794189 681.023438,339.015839 
	C699.534424,319.921570 710.140625,297.098846 709.516846,269.865601 
	C714.978271,269.922241 719.979492,269.922241 724.940796,269.922241 
	C724.940796,266.329132 724.940796,263.229523 724.975647,259.682861 
	C725.010498,256.845154 725.010498,254.454544 725.010498,252.063919 
	C726.013916,255.537033 725.760803,259.024506 726.081238,262.458466 
	C726.440918,266.312378 727.319092,270.117889 727.971680,273.944458 
z"/>
<path fill="#254491" opacity="1.000000" stroke="none" 
	d="
M495.287537,275.059296 
	C496.508179,263.579956 496.727478,251.874100 499.257477,240.690994 
	C501.386902,231.278549 505.665833,222.209488 509.966400,213.467148 
	C515.384766,202.452560 523.061096,192.815414 532.536560,185.003159 
	C540.279419,178.619400 548.757996,173.122116 556.987366,167.341400 
	C558.114807,166.549438 559.687744,166.391830 561.774292,165.965729 
	C566.075439,166.713379 569.441345,167.265198 571.925110,163.332260 
	C572.559204,162.328217 574.905884,162.147003 576.494263,162.048859 
	C583.585205,161.610764 590.685364,161.156876 597.784607,161.113907 
	C600.064392,161.100113 602.351624,162.330185 604.764893,163.028656 
	C606.210022,162.569046 608.151978,161.951431 610.093872,161.333832 
	C610.011902,163.278107 609.887573,165.221802 609.861206,167.166824 
	C609.839661,168.755371 609.935059,170.345505 609.540771,171.968048 
	C605.965637,172.330490 602.805908,172.519226 599.694397,173.011963 
	C579.691956,176.179672 561.619751,183.785614 546.715393,197.667816 
	C527.341980,215.712524 516.138306,237.866745 514.722351,264.623260 
	C514.642883,266.125336 513.627319,267.577911 512.619751,269.049927 
	C507.637543,269.428162 503.082977,269.810059 497.987000,270.237305 
	C497.987000,271.781433 497.987000,273.905884 497.931183,276.320007 
	C497.012756,276.092865 496.150146,275.576080 495.287537,275.059296 
M578.237488,166.531219 
	C577.849060,166.404800 577.465271,166.257355 577.068298,166.169708 
	C576.988525,166.152084 576.858582,166.361771 576.751770,166.466675 
	C577.140198,166.592926 577.528625,166.719162 578.237488,166.531219 
z"/>
<path fill="#224293" opacity="1.000000" stroke="none" 
	d="
M913.002686,565.852844 
	C903.869995,565.852844 894.737305,565.852844 885.281006,565.852844 
	C885.281006,539.695435 885.281006,513.644836 885.281006,486.993011 
	C893.975830,486.993011 902.547852,486.993011 911.853760,487.325378 
	C913.397095,489.369446 914.898682,491.076141 914.911072,492.793610 
	C915.068665,514.530457 915.079590,536.269348 914.921326,558.006165 
	C914.902222,560.626282 913.671753,563.237549 913.002686,565.852844 
z"/>
<path fill="#264591" opacity="1.000000" stroke="none" 
	d="
M209.661224,643.369751 
	C211.423767,650.278259 212.986969,656.822083 214.550171,663.365967 
	C214.752777,663.357239 214.955399,663.348450 215.158005,663.339661 
	C215.158005,653.132568 215.158005,642.925415 215.158005,632.414185 
	C220.540131,632.414185 225.462250,632.414185 230.811172,632.414185 
	C230.811172,648.236145 230.811172,664.099182 230.811172,680.251953 
	C221.920593,680.251953 213.172745,680.251953 203.834717,680.251953 
	C201.106674,669.999146 198.397263,659.816284 195.687851,649.633423 
	C195.188202,649.707520 194.688553,649.781677 194.188904,649.855774 
	C194.188904,659.845520 194.188904,669.835266 194.188904,679.898071 
	C188.560043,679.898071 183.632339,679.898071 178.514191,679.898071 
	C178.514191,663.930542 178.514191,648.207397 178.514191,632.142090 
	C187.527313,632.142090 196.140762,632.010986 204.739883,632.302368 
	C205.857910,632.340271 207.341385,634.387878 207.880432,635.800354 
	C208.747437,638.072327 208.968109,640.590820 209.661224,643.369751 
z"/>
<path fill="#264591" opacity="1.000000" stroke="none" 
	d="
M684.003662,665.776855 
	C683.272095,670.992126 683.001770,676.098083 682.715576,681.504272 
	C676.833435,681.504272 670.961426,681.504272 664.791870,681.504272 
	C664.791870,665.228027 664.791870,649.345032 664.791870,633.063904 
	C676.768372,633.063904 688.389465,632.577271 699.949036,633.211609 
	C709.922302,633.758972 715.347534,641.037109 712.732666,650.564148 
	C711.745789,654.159790 707.373718,656.826355 704.735107,659.708557 
	C713.741577,663.436829 712.233887,673.165649 714.067566,681.714966 
	C707.782043,681.714966 701.576660,681.714966 695.098999,681.714966 
	C694.518616,678.607178 693.988281,675.681763 693.424072,672.762939 
	C692.035095,665.576660 692.028870,665.577881 684.003662,665.776855 
M683.704102,653.885681 
	C685.855896,653.888855 688.231812,654.463806 690.096008,653.733154 
	C691.935120,653.012390 694.653748,650.775818 694.483459,649.552979 
	C694.215698,647.630249 692.168640,645.267883 690.284058,644.444702 
	C688.264526,643.562561 685.561279,644.245667 683.104919,644.245667 
	C683.104919,647.551636 683.104919,650.368713 683.704102,653.885681 
z"/>
<path fill="#274693" opacity="1.000000" stroke="none" 
	d="
M89.655457,631.768250 
	C92.246597,631.768127 94.401070,631.768127 97.769089,631.768127 
	C97.136246,644.682556 96.920654,657.255798 95.722343,669.734680 
	C95.202911,675.143921 90.071785,678.424744 85.338753,679.450500 
	C75.439430,681.596191 64.984329,682.818604 56.074001,676.567871 
	C52.782658,674.258972 49.608677,669.525574 49.292980,665.660156 
	C48.388275,654.582764 48.974377,643.383606 48.974377,631.794434 
	C55.199749,631.794434 61.230122,631.794434 67.593178,631.794434 
	C67.593178,640.226257 67.587517,648.313477 67.597198,656.400696 
	C67.599594,658.398865 67.469261,660.420593 67.722725,662.389893 
	C68.132874,665.576660 69.324806,668.262756 73.245659,668.148987 
	C77.107216,668.036987 78.964218,665.812500 79.052788,662.135803 
	C79.241226,654.313171 79.309219,646.487488 79.412094,638.662903 
	C79.440056,636.536072 79.416336,634.408569 79.416336,631.768372 
	C82.955238,631.768372 86.087021,631.768372 89.655457,631.768250 
z"/>
<path fill="#264591" opacity="1.000000" stroke="none" 
	d="
M542.120605,680.000671 
	C542.070679,679.554382 542.020813,679.108032 542.426514,678.270264 
	C543.587891,676.401062 544.721863,674.979675 544.924561,673.435974 
	C545.757507,667.092346 544.398254,660.999512 542.226135,655.058655 
	C542.226135,647.927856 542.226135,640.797119 542.226135,633.308594 
	C556.479858,633.308594 570.503845,633.308594 584.780762,633.308594 
	C584.780762,636.951233 584.780762,640.536316 584.780762,644.709351 
	C576.957275,644.709351 569.235291,644.709351 561.287476,644.709351 
	C561.287476,647.035339 561.287476,648.781189 561.287476,651.239624 
	C568.562256,651.239624 575.789490,651.239624 583.300171,651.239624 
	C583.300171,655.680054 583.300171,659.421875 583.300171,663.717041 
	C575.976196,663.717041 568.756287,663.717041 561.219971,663.717041 
	C561.219971,665.989014 561.219971,667.717529 561.219971,669.866394 
	C568.951782,669.866394 576.710571,669.866394 584.749329,669.866394 
	C584.749329,673.848083 584.749329,677.425049 584.749329,681.175171 
	C572.110962,681.175171 559.510071,681.175171 546.224609,680.807251 
	C544.400208,680.293091 543.260376,680.146851 542.120605,680.000671 
z"/>
<path fill="#254491" opacity="1.000000" stroke="none" 
	d="
M414.811951,650.205688 
	C412.812286,644.438599 410.991364,639.024658 408.889008,632.773804 
	C415.559570,632.773804 421.324860,632.676819 427.080414,632.869751 
	C428.033081,632.901733 429.498657,634.026855 429.786316,634.942383 
	C432.383820,643.209412 434.771545,651.542297 437.566437,661.029053 
	C439.936462,654.062988 441.947449,648.190796 443.928589,642.308655 
	C444.660248,640.136230 445.024323,637.773560 446.121979,635.814819 
	C446.822937,634.564026 448.517578,633.173340 449.842987,633.092346 
	C454.975647,632.778381 460.138947,632.964661 465.917786,632.964661 
	C463.482025,639.631348 461.212463,645.902161 458.900208,652.157104 
	C455.943451,660.155457 452.839600,668.101746 450.030365,676.151123 
	C448.873322,679.466431 447.526062,681.564331 443.435425,681.121399 
	C439.488434,680.694031 435.425598,680.708740 431.473328,681.112915 
	C426.186554,681.653687 424.297546,678.878052 422.950745,674.382629 
	C420.549042,666.365967 417.670105,658.492249 414.811951,650.205688 
z"/>
<path fill="#264591" opacity="1.000000" stroke="none" 
	d="
M832.804077,676.730835 
	C823.712830,683.994446 813.465515,683.984497 803.152283,682.592346 
	C791.677246,681.043274 791.387817,680.354431 792.782410,668.500977 
	C797.111145,669.223145 801.419128,670.161865 805.777588,670.606506 
	C810.057007,671.043152 814.467407,671.294434 818.105957,666.612122 
	C814.883484,665.743469 811.653809,664.900269 808.439941,664.000671 
	C802.415527,662.314575 796.079224,661.011169 793.373169,654.271118 
	C789.162842,643.784607 795.031921,635.638428 805.977722,633.627747 
	C814.749573,632.016296 824.053589,633.302063 833.310364,633.302063 
	C833.310364,638.530945 833.310364,642.606506 833.310364,647.317017 
	C830.552795,646.547424 828.246521,645.672363 825.861511,645.297241 
	C822.917664,644.834106 819.860718,644.369751 816.943665,644.702942 
	C814.923706,644.933716 813.057678,646.511902 811.122925,647.488098 
	C812.711914,648.486145 814.183289,649.843384 815.913635,650.410034 
	C819.973206,651.739258 824.432495,652.108826 828.234009,653.912231 
	C836.792725,657.972717 838.766663,668.097595 832.804077,676.730835 
z"/>
<path fill="#264591" opacity="1.000000" stroke="none" 
	d="
M1166.064697,681.557983 
	C1163.121948,681.557434 1160.650024,681.557434 1157.705566,681.557434 
	C1157.591431,679.589294 1157.204956,677.942932 1157.454102,676.399109 
	C1158.921265,667.312561 1153.993042,660.298279 1150.057495,652.954346 
	C1146.589722,646.483215 1143.095093,640.026367 1139.288940,632.963318 
	C1145.947144,632.963318 1151.794067,632.603577 1157.543701,633.192749 
	C1159.169067,633.359375 1161.018188,636.077026 1161.871460,638.017395 
	C1163.446411,641.599792 1164.298340,645.494324 1165.590698,649.210449 
	C1165.950684,650.245911 1166.798950,651.111572 1167.602783,652.326538 
	C1169.836914,646.492798 1171.820557,640.926575 1174.160400,635.514282 
	C1174.654663,634.371094 1176.418701,633.129700 1177.655273,633.066833 
	C1182.949463,632.797485 1188.265137,632.952026 1194.433960,632.952026 
	C1190.616699,639.980164 1186.925415,646.340637 1183.657104,652.911499 
	C1180.089233,660.084534 1174.333862,666.566650 1176.019897,675.564392 
	C1176.912720,680.329285 1174.912720,682.398071 1170.030396,681.594971 
	C1168.894287,681.408081 1167.702148,681.561584 1166.064697,681.557983 
z"/>
<path fill="#234392" opacity="1.000000" stroke="none" 
	d="
M1023.927612,647.024658 
	C1020.301392,647.024719 1017.155396,647.024719 1013.720825,647.024719 
	C1013.720825,642.284302 1013.720825,637.869446 1013.720825,633.208618 
	C1030.821045,633.208618 1047.716675,633.208618 1064.911499,633.208618 
	C1064.911499,637.772217 1064.911499,642.160706 1064.911499,647.000122 
	C1059.722534,647.000122 1054.641357,647.000122 1049.061523,647.000122 
	C1049.061523,658.658020 1049.061523,669.883606 1049.061523,681.320923 
	C1042.611938,681.320923 1036.675049,681.320923 1030.217529,681.320923 
	C1030.217529,670.041443 1030.217529,658.834229 1030.217529,647.024536 
	C1027.941040,647.024536 1026.174438,647.024536 1023.927612,647.024658 
z"/>
<path fill="#2C4B95" opacity="1.000000" stroke="none" 
	d="
M326.757233,632.348450 
	C328.675476,632.471375 330.125854,632.579102 331.490631,632.680481 
	C331.490631,648.848206 331.490631,664.610596 331.490631,680.466492 
	C324.855865,680.466492 318.619385,680.466492 312.272552,680.466492 
	C312.272552,664.491089 312.272552,648.888062 312.272552,632.333313 
	C317.130737,632.333313 321.710052,632.333313 326.757233,632.348450 
z"/>
<path fill="#244392" opacity="1.000000" stroke="none" 
	d="
M935.194275,659.999939 
	C935.194336,667.312317 935.194336,674.124695 935.194336,681.279846 
	C928.749695,681.279846 922.671204,681.279846 916.276245,681.279846 
	C916.276245,665.279053 916.276245,649.389526 916.276245,633.221802 
	C922.386841,633.221802 928.460815,633.221802 935.194214,633.221802 
	C935.194214,641.988953 935.194214,650.744507 935.194275,659.999939 
z"/>
<path fill="#364E8E" opacity="1.000000" stroke="none" 
	d="
M495.205078,275.489380 
	C496.150146,275.576080 497.012756,276.092865 498.097137,276.675995 
	C498.559692,278.555115 498.906738,280.361023 499.024384,282.181763 
	C499.956573,296.612061 504.358307,310.135284 511.029785,322.736908 
	C518.648376,337.127533 528.747925,349.773560 541.874207,359.672089 
	C550.352051,366.065247 559.191223,371.980194 569.438171,375.217041 
	C578.022095,377.928558 586.720093,380.278809 595.367615,382.789032 
	C592.986389,383.200836 590.605103,383.612640 588.116211,384.399048 
	C567.429932,380.263916 549.300293,371.040924 533.570984,356.959778 
	C517.943970,342.970093 506.818481,325.916626 500.455597,306.152313 
	C497.348938,296.502594 496.818909,286.023285 495.205078,275.489380 
z"/>
<path fill="#364E8E" opacity="1.000000" stroke="none" 
	d="
M728.102661,273.583435 
	C727.319092,270.117889 726.440918,266.312378 726.081238,262.458466 
	C725.760803,259.024506 726.013916,255.537033 725.010498,252.063919 
	C725.010498,254.454544 725.010498,256.845154 724.750244,259.354919 
	C723.679382,254.239166 723.644043,248.727890 721.896973,243.826752 
	C718.218201,233.506149 714.263000,223.188110 709.286316,213.448898 
	C702.094788,199.375000 691.405151,187.910995 678.360962,179.078079 
	C670.013367,173.425446 660.781555,169.078461 652.086304,163.887115 
	C652.809326,163.115784 653.392212,162.603516 653.975098,162.091248 
	C656.608032,163.158844 659.241028,164.226456 661.759399,165.645477 
	C661.428345,166.244598 661.211853,166.492294 660.995422,166.739990 
	C661.654236,166.531845 662.312988,166.323685 662.971802,166.115509 
	C670.660339,170.875824 678.802002,175.047470 685.930908,180.534851 
	C696.544434,188.704422 705.234802,199.004852 711.924561,210.551392 
	C718.898010,222.587616 724.667175,235.328262 726.083496,249.495972 
	C726.873413,257.397461 727.521545,265.313110 728.102661,273.583435 
z"/>
<path fill="#3B5095" opacity="1.000000" stroke="none" 
	d="
M653.665894,161.916092 
	C653.392212,162.603516 652.809326,163.115784 651.706421,163.819519 
	C638.867493,159.535812 626.124146,157.408051 612.866455,157.093506 
	C612.581665,157.337418 612.479187,157.603882 612.471924,158.266449 
	C612.528503,161.352432 612.489868,164.042313 612.307617,167.148956 
	C612.255188,168.138840 612.346252,168.711960 612.461487,169.618134 
	C612.477234,170.619568 612.468811,171.287933 612.046509,171.985291 
	C611.081299,171.987839 610.529907,171.961395 609.978516,171.934937 
	C609.935059,170.345505 609.839661,168.755371 609.861206,167.166824 
	C609.887573,165.221802 610.011902,163.278107 610.093872,161.333832 
	C608.151978,161.951431 606.210022,162.569046 604.764893,163.028656 
	C602.351624,162.330185 600.064392,161.100113 597.784607,161.113907 
	C590.685364,161.156876 583.585205,161.610764 576.494263,162.048859 
	C574.905884,162.147003 572.559204,162.328217 571.925110,163.332260 
	C569.441345,167.265198 566.075439,166.713379 562.156006,165.953857 
	C566.273315,163.669968 570.508972,160.623596 575.225586,159.326569 
	C589.273010,155.463577 603.619507,152.731354 618.283569,154.085205 
	C630.244934,155.189514 642.306885,156.267654 653.665894,161.916092 
z"/>
<path fill="#364E8E" opacity="1.000000" stroke="none" 
	d="
M387.389679,563.776978 
	C392.331970,559.122314 389.401184,553.069763 389.679047,547.644470 
	C389.703644,547.164673 387.091705,546.096130 385.690643,546.071350 
	C377.209473,545.920715 368.700714,545.597595 360.246796,546.099792 
	C351.071442,546.644836 347.528900,543.729370 351.362122,533.005554 
	C362.007782,533.005554 372.603394,533.167725 383.185211,532.858582 
	C385.128693,532.801819 387.016327,530.832214 388.973938,529.351562 
	C389.089874,530.586426 389.161591,532.215210 389.247070,534.156494 
	C377.000336,534.156494 365.103790,534.156494 352.897369,534.156494 
	C352.897369,537.672180 352.897369,540.891235 352.897369,544.762817 
	C365.784119,544.762817 378.467651,544.762817 391.272339,544.762817 
	C391.272339,550.848389 391.410828,556.293274 391.117157,561.714722 
	C391.074982,562.492981 388.947937,563.158264 387.389679,563.776978 
z"/>
<path fill="#37466F" opacity="1.000000" stroke="none" 
	d="
M673.726685,488.402924 
	C672.025452,488.197449 670.435486,487.075256 668.838196,487.064697 
	C649.860413,486.939056 630.881042,487.045349 611.903137,486.926910 
	C607.405396,486.898834 605.873047,488.599823 605.913208,493.153656 
	C606.104187,514.794250 605.954895,536.437683 606.059814,558.079468 
	C606.068604,559.885620 607.066223,561.687012 607.825745,563.823914 
	C604.822754,566.259644 604.960388,564.027832 604.963989,561.812561 
	C604.989624,546.005249 604.992310,530.197998 604.998657,514.390686 
	C605.002380,505.082581 604.999329,495.774506 604.999329,485.467407 
	C608.175293,485.467407 611.066101,485.446594 613.956543,485.470825 
	C632.586731,485.627045 651.217529,485.751648 669.845703,486.042480 
	C671.185181,486.063385 672.505432,487.320404 673.726685,488.402924 
z"/>
<path fill="#37466F" opacity="1.000000" stroke="none" 
	d="
M773.197876,486.619934 
	C763.606995,486.919769 753.636047,487.052887 743.668152,486.935974 
	C740.446228,486.898163 738.903442,487.523315 738.927429,491.261353 
	C739.073486,514.026123 739.056152,536.792725 738.920715,559.557678 
	C738.899902,563.063110 740.007568,564.179504 743.486572,564.079712 
	C751.290466,563.855774 759.104858,563.999023 767.372314,563.979614 
	C767.366089,564.478882 766.906494,565.434082 766.438110,565.438477 
	C757.017212,565.525879 747.595215,565.503845 738.207764,565.503845 
	C738.207764,538.718994 738.207764,512.716492 738.207764,486.356140 
	C750.021484,486.356140 761.420227,486.356140 773.197876,486.619934 
z"/>
<path fill="#37466F" opacity="1.000000" stroke="none" 
	d="
M913.438965,565.930969 
	C913.671753,563.237549 914.902222,560.626282 914.921326,558.006165 
	C915.079590,536.269348 915.068665,514.530457 914.911072,492.793610 
	C914.898682,491.076141 913.397095,489.369446 912.321045,487.396820 
	C913.205017,487.135895 914.355591,487.135895 916.016052,487.135895 
	C916.016052,488.601837 916.015808,490.046417 916.016174,491.490997 
	C916.022278,514.882080 916.066772,538.273376 915.941956,561.663818 
	C915.934204,563.115845 914.594910,564.560852 913.438965,565.930969 
z"/>
<path fill="#364E8E" opacity="1.000000" stroke="none" 
	d="
M374.956726,562.045898 
	C377.728180,562.403992 380.499664,562.762146 383.565063,563.308838 
	C363.621674,563.411499 343.384308,563.325562 323.238647,563.092896 
	C329.885223,562.639465 336.440094,562.332703 342.994934,562.026001 
	C348.364594,562.025696 353.734222,562.025391 359.872925,562.309570 
	C365.413544,562.411377 370.185120,562.228638 374.956726,562.045898 
z"/>
<path fill="#37466F" opacity="1.000000" stroke="none" 
	d="
M611.806030,564.410034 
	C630.257080,564.096375 649.082336,564.093201 667.906433,563.943542 
	C669.723022,563.929138 671.532410,563.006531 673.655884,562.276794 
	C674.709961,564.700439 673.301331,565.087830 671.068909,565.068604 
	C651.439575,564.899780 631.809692,564.799927 611.806030,564.410034 
z"/>
<path fill="#254490" opacity="1.000000" stroke="none" 
	d="
M542.114990,655.510864 
	C544.398254,660.999512 545.757507,667.092346 544.924561,673.435974 
	C544.721863,674.979675 543.587891,676.401062 542.497253,677.938782 
	C542.076233,670.653564 542.039978,663.308289 542.114990,655.510864 
z"/>
<path fill="#37466F" opacity="1.000000" stroke="none" 
	d="
M94.439095,502.904022 
	C99.680733,502.535034 105.390991,501.977875 111.085266,502.109894 
	C115.033386,502.201416 116.357475,500.943787 116.085495,497.033875 
	C115.824074,493.275818 116.185333,489.474457 116.515137,485.360992 
	C116.757294,490.784668 116.757294,496.539490 116.757294,503.009949 
	C109.588280,503.009949 102.244591,503.009949 94.439095,502.904022 
z"/>
<path fill="#37466F" opacity="1.000000" stroke="none" 
	d="
M229.273224,562.333008 
	C237.574051,561.991089 246.129379,562.082336 254.679123,561.904968 
	C256.120789,561.875061 257.538422,560.686401 258.977081,559.636841 
	C259.432404,560.253174 259.877838,561.265991 260.497925,562.675781 
	C249.877167,562.675781 239.701508,562.675781 229.273224,562.333008 
z"/>
<path fill="#364E8E" opacity="1.000000" stroke="none" 
	d="
M389.385254,516.781555 
	C384.679260,516.735168 380.116302,516.350708 375.550629,516.001831 
	C373.583710,515.851562 371.611115,515.774780 369.323914,515.398743 
	C374.999542,515.071167 380.993103,514.948792 386.984528,515.015991 
	C387.837341,515.025574 388.679871,515.954468 389.385254,516.781555 
z"/>
<path fill="#37466F" opacity="1.000000" stroke="none" 
	d="
M342.527130,562.021118 
	C336.440094,562.332703 329.885223,562.639465 322.893982,562.972717 
	C322.331085,562.850952 322.204590,562.702637 322.114197,562.263794 
	C328.786652,561.987671 335.422974,562.002014 342.527130,562.021118 
z"/>
<path fill="#37466F" opacity="1.000000" stroke="none" 
	d="
M94.543777,515.168213 
	C90.866669,515.412659 86.735924,515.547791 82.289536,515.417480 
	C86.012634,515.121033 90.051392,515.090027 94.543777,515.168213 
z"/>
<path fill="#37466F" opacity="1.000000" stroke="none" 
	d="
M80.090981,514.397888 
	C79.856720,511.426605 79.594452,508.006287 79.607819,504.281677 
	C79.943298,507.301208 80.003143,510.625031 80.090981,514.397888 
z"/>
<path fill="#37466F" opacity="1.000000" stroke="none" 
	d="
M792.516113,486.873718 
	C791.357361,486.984772 789.900085,486.959717 787.994263,486.900513 
	C789.102905,486.823425 790.660278,486.780518 792.516113,486.873718 
z"/>
<path fill="#254490" opacity="1.000000" stroke="none" 
	d="
M542.179810,680.381714 
	C543.260376,680.146851 544.400208,680.293091 545.765503,680.701355 
	C544.740356,680.896484 543.489685,680.829651 542.179810,680.381714 
z"/>
<path fill="#3B5095" opacity="1.000000" stroke="none" 
	d="
M662.778198,166.045242 
	C662.312988,166.323685 661.654236,166.531845 660.995422,166.739990 
	C661.211853,166.492294 661.428345,166.244598 661.909668,165.966400 
	C662.174622,165.935867 662.584656,165.974960 662.778198,166.045242 
z"/>
<path fill="#364E8E" opacity="1.000000" stroke="none" 
	d="
M389.368164,524.607117 
	C389.093323,524.549683 389.034973,524.269958 389.119446,523.755981 
	C389.442841,523.766968 389.550323,524.054688 389.368164,524.607117 
z"/>
<path fill="#FAFAF9" opacity="1.000000" stroke="none" 
	d="
M489.867767,505.002686 
	C499.199310,501.233398 507.934814,505.591583 509.909271,515.142334 
	C511.483185,522.755615 511.330688,530.261780 508.283447,537.611938 
	C506.088165,542.907166 495.324005,546.995972 490.458801,544.048828 
	C489.967438,543.751282 490.023499,542.549927 489.846466,540.906494 
	C489.867523,528.364197 489.867645,516.683411 489.867767,505.002686 
z"/>
<path fill="#3B5095" opacity="1.000000" stroke="none" 
	d="
M489.606781,505.323303 
	C489.867645,516.683411 489.867523,528.364197 489.765930,540.500244 
	C489.432861,535.255432 489.056335,529.556519 489.009155,523.854858 
	C488.958923,517.785828 489.220428,511.714325 489.606781,505.323303 
z"/>
<path fill="#F5F7F8" opacity="1.000000" stroke="none" 
	d="
M211.299530,502.018860 
	C215.071243,502.081970 218.483398,501.660706 221.665848,502.330627 
	C226.019394,503.247040 228.528702,505.743164 228.269135,511.018860 
	C228.010849,516.268738 224.757217,518.072083 220.873489,518.754944 
	C216.898331,519.453979 212.704559,518.909790 208.521317,518.909790 
	C208.521317,513.598755 208.441025,508.678955 208.623627,503.768951 
	C208.646286,503.159637 210.065491,502.602325 211.299530,502.018860 
z"/>
<path fill="#F5F7F8" opacity="1.000000" stroke="none" 
	d="
M776.618347,520.968872 
	C773.371216,520.987793 770.570312,520.987793 767.391846,520.987793 
	C767.391846,515.285706 767.391846,509.947235 767.391846,503.968048 
	C772.614624,504.350555 777.817261,504.158813 782.672058,505.365936 
	C784.645203,505.856567 787.015625,509.337128 787.115479,511.551575 
	C787.226990,514.022583 785.452454,517.088623 783.573242,518.972412 
	C782.161560,520.387634 779.287598,520.344116 776.618347,520.968872 
z"/>
<path fill="#37466F" opacity="1.000000" stroke="none" 
	d="
M374.495422,562.039185 
	C370.185120,562.228638 365.413544,562.411377 360.343201,562.320068 
	C364.707672,562.041443 369.370911,562.036926 374.495422,562.039185 
z"/>
<path fill="#8F8E93" opacity="1.000000" stroke="none" 
	d="
M609.540771,171.968063 
	C610.529907,171.961395 611.081299,171.987839 612.468689,171.985260 
	C633.483765,172.358582 651.926270,178.683319 668.373474,189.926376 
	C680.278076,198.064148 689.878784,208.796921 696.956726,221.622330 
	C705.251343,236.652313 710.358459,252.406158 709.056641,269.808960 
	C710.140625,297.098846 699.534424,319.921570 681.023438,339.015839 
	C670.574341,349.794189 658.035461,358.208954 642.587402,361.726013 
	C638.295105,337.441437 634.556946,313.564789 630.689270,289.709167 
	C629.617065,283.095581 628.160339,276.544342 626.956543,269.535889 
	C625.491760,258.476257 623.940063,247.846725 622.411255,237.213898 
	C619.921143,219.895493 617.500732,202.566742 614.909302,185.263535 
	C614.489014,182.457214 613.338196,179.760284 612.206421,176.890274 
	C611.647644,176.937347 611.222412,177.080399 611.193787,177.280273 
	C609.060303,192.167221 607.091980,207.079117 604.817566,221.944199 
	C602.368958,237.948166 599.635864,253.908600 596.875244,270.243286 
	C595.827637,274.796906 594.738220,278.964752 594.071045,283.199127 
	C591.836243,297.383270 589.926880,311.620331 587.557556,325.781036 
	C585.514160,337.993866 583.012878,350.130066 580.334167,362.258484 
	C575.263733,360.319275 570.340881,358.849396 565.923279,356.449463 
	C547.833801,346.622223 533.744324,332.628540 524.702332,314.092194 
	C521.289795,307.096405 518.964661,299.457947 517.027710,291.886353 
	C515.118835,284.424316 514.328552,276.676147 513.047424,269.053528 
	C513.627319,267.577911 514.642883,266.125336 514.722351,264.623260 
	C516.138306,237.866745 527.341980,215.712524 546.715393,197.667816 
	C561.619751,183.785614 579.691956,176.179672 599.694397,173.011963 
	C602.805908,172.519226 605.965637,172.330490 609.540771,171.968063 
z"/>
<path fill="#FAFAF9" opacity="1.000000" stroke="none" 
	d="
M512.619751,269.049927 
	C514.328552,276.676147 515.118835,284.424316 517.027710,291.886353 
	C518.964661,299.457947 521.289795,307.096405 524.702332,314.092194 
	C533.744324,332.628540 547.833801,346.622223 565.923279,356.449463 
	C570.340881,358.849396 575.263733,360.319275 580.536865,362.562866 
	C591.096436,364.621765 601.073547,366.334625 611.017761,368.032715 
	C610.984924,368.017975 610.933228,367.967773 610.933228,367.967773 
	C610.933228,373.212708 610.933228,378.457642 610.933228,384.178162 
	C605.681580,383.655975 600.949402,383.185425 595.792358,382.751953 
	C586.720093,380.278809 578.022095,377.928558 569.438171,375.217041 
	C559.191223,371.980194 550.352051,366.065247 541.874207,359.672089 
	C528.747925,349.773560 518.648376,337.127533 511.029785,322.736908 
	C504.358307,310.135284 499.956573,296.612061 499.024384,282.181763 
	C498.906738,280.361023 498.559692,278.555115 498.152954,276.386353 
	C497.987000,273.905884 497.987000,271.781433 497.987000,270.237305 
	C503.082977,269.810059 507.637543,269.428162 512.619751,269.049927 
z"/>
<path fill="#FAFAF9" opacity="1.000000" stroke="none" 
	d="
M709.516846,269.865601 
	C710.358459,252.406158 705.251343,236.652313 696.956726,221.622330 
	C689.878784,208.796921 680.278076,198.064148 668.373474,189.926376 
	C651.926270,178.683319 633.483765,172.358582 612.882568,171.956284 
	C612.468811,171.287933 612.477234,170.619568 612.612305,169.387863 
	C612.643066,168.127090 612.547119,167.429642 612.451172,166.732178 
	C612.489868,164.042313 612.528503,161.352432 612.663513,158.099609 
	C612.856201,157.396484 612.952515,157.256287 613.048889,157.116089 
	C626.124146,157.408051 638.867493,159.535812 651.566284,164.078583 
	C660.781555,169.078461 670.013367,173.425446 678.360962,179.078079 
	C691.405151,187.910995 702.094788,199.375000 709.286316,213.448898 
	C714.263000,223.188110 718.218201,233.506149 721.896973,243.826752 
	C723.644043,248.727890 723.679382,254.239166 724.715454,259.802002 
	C724.940796,263.229523 724.940796,266.329132 724.940796,269.922241 
	C719.979492,269.922241 714.978271,269.922241 709.516846,269.865601 
z"/>
<path fill="#FCFCFD" opacity="1.000000" stroke="none" 
	d="
M626.880005,269.964478 
	C628.160339,276.544342 629.617065,283.095581 630.689270,289.709167 
	C634.556946,313.564789 638.295105,337.441437 642.210327,361.721924 
	C638.868286,363.273956 635.472778,364.851013 631.911743,365.459900 
	C625.278992,366.593994 618.549927,367.164581 611.397095,367.968719 
	C610.933228,367.967773 610.984924,368.017975 611.020691,367.561035 
	C611.096680,346.517639 611.073853,325.930817 611.205505,305.344971 
	C611.265991,295.894897 611.629822,286.446747 612.213196,276.953796 
	C613.046875,275.939941 613.523438,274.969971 614.460022,274.000000 
	C618.395325,274.000000 621.870605,274.000000 625.345886,274.000000 
	C625.304138,273.393158 625.262451,272.786285 625.220703,272.179443 
	C621.481567,272.797913 617.420288,269.881958 613.643616,274.000000 
	C612.812012,274.001434 612.336792,274.002899 611.743774,273.613373 
	C611.798767,270.837341 610.906860,269.676361 608.309448,269.935028 
	C606.576782,270.107544 604.802673,269.863953 603.298218,269.568481 
	C605.032593,266.872650 607.535950,264.517822 607.796387,261.936737 
	C608.423279,255.723572 607.999878,249.404404 608.000000,243.128006 
	C608.000061,238.932953 608.000000,234.737885 608.000000,230.154526 
	C609.830994,231.038834 610.828491,231.520554 611.895874,232.463608 
	C611.918945,237.615875 611.871948,242.306808 611.509827,247.056229 
	C611.404968,248.077225 611.615173,249.039734 611.895081,250.452881 
	C611.908691,253.946487 611.852539,256.989471 611.565552,260.292969 
	C611.434998,262.343903 611.535339,264.134338 611.703125,266.373108 
	C611.645203,268.842407 611.964966,270.220245 614.618225,270.073212 
	C618.694946,269.847321 622.791748,269.982513 626.880005,269.964478 
z"/>
<path fill="#3B5095" opacity="1.000000" stroke="none" 
	d="
M578.077271,166.688324 
	C577.528625,166.719162 577.140198,166.592926 576.751770,166.466675 
	C576.858582,166.361771 576.988525,166.152084 577.068298,166.169708 
	C577.465271,166.257355 577.849060,166.404800 578.077271,166.688324 
z"/>
<path fill="#F5F7F8" opacity="1.000000" stroke="none" 
	d="
M683.404541,653.535767 
	C683.104919,650.368713 683.104919,647.551636 683.104919,644.245667 
	C685.561279,644.245667 688.264526,643.562561 690.284058,644.444702 
	C692.168640,645.267883 694.215698,647.630249 694.483459,649.552979 
	C694.653748,650.775818 691.935120,653.012390 690.096008,653.733154 
	C688.231812,654.463806 685.855896,653.888855 683.404541,653.535767 
z"/>
<path fill="#8F8E93" opacity="1.000000" stroke="none" 
	d="
M612.307678,167.148956 
	C612.547119,167.429642 612.643066,168.127090 612.588135,169.054810 
	C612.346252,168.711960 612.255188,168.138840 612.307678,167.148956 
z"/>
<path fill="#8F8E93" opacity="1.000000" stroke="none" 
	d="
M612.866455,157.093506 
	C612.952515,157.256287 612.856201,157.396484 612.568298,157.703506 
	C612.479187,157.603882 612.581665,157.337418 612.866455,157.093506 
z"/>
<path fill="#244391" opacity="1.000000" stroke="none" 
	d="
M611.856079,276.997742 
	C611.629822,286.446747 611.265991,295.894897 611.205505,305.344971 
	C611.073853,325.930817 611.096680,346.517639 611.053528,367.575775 
	C601.073547,366.334625 591.096436,364.621765 580.916748,362.604523 
	C583.012878,350.130066 585.514160,337.993866 587.557556,325.781036 
	C589.926880,311.620331 591.836243,297.383270 594.071045,283.199127 
	C594.738220,278.964752 595.827637,274.796906 597.303650,270.281921 
	C599.604919,269.912354 601.325989,269.859467 603.047119,269.806580 
	C604.802673,269.863953 606.576782,270.107544 608.309448,269.935028 
	C610.906860,269.676361 611.798767,270.837341 611.624146,273.977966 
	C611.700134,275.488312 611.778076,276.243011 611.856079,276.997742 
z"/>
<path fill="#264591" opacity="1.000000" stroke="none" 
	d="
M626.956543,269.535889 
	C622.791748,269.982513 618.694946,269.847321 614.618225,270.073212 
	C611.964966,270.220245 611.645203,268.842407 611.821777,265.966064 
	C611.847534,263.417908 611.821960,261.725159 611.796387,260.032440 
	C611.852539,256.989471 611.908691,253.946487 611.967529,250.080750 
	C611.921814,248.504593 611.873352,247.751175 611.824951,246.997757 
	C611.871948,242.306808 611.918945,237.615875 611.968933,231.999680 
	C612.090088,217.687057 612.208130,204.299698 612.554260,190.628448 
	C612.708496,187.931625 612.634705,185.518646 612.499390,182.714661 
	C612.453857,181.533234 612.469849,180.742813 612.623413,179.878357 
	C612.913025,179.455460 612.834473,179.195892 612.498779,178.690826 
	C612.489807,177.908295 612.507446,177.460541 612.525085,177.012787 
	C613.338196,179.760284 614.489014,182.457214 614.909302,185.263535 
	C617.500732,202.566742 619.921143,219.895493 622.411255,237.213898 
	C623.940063,247.846725 625.491760,258.476257 626.956543,269.535889 
z"/>
<path fill="#FAFAF9" opacity="1.000000" stroke="none" 
	d="
M612.485779,179.952393 
	C612.469849,180.742813 612.453857,181.533234 612.330872,183.114105 
	C612.257935,186.240463 612.292053,188.576401 612.326233,190.912323 
	C612.208130,204.299698 612.090088,217.687057 611.898926,231.538361 
	C610.828491,231.520554 609.830994,231.038834 608.000000,230.154526 
	C608.000000,234.737885 608.000061,238.932953 608.000000,243.128006 
	C607.999878,249.404404 608.423279,255.723572 607.796387,261.936737 
	C607.535950,264.517822 605.032593,266.872650 603.298218,269.568481 
	C601.325989,269.859467 599.604919,269.912354 597.455322,269.926636 
	C599.635864,253.908600 602.368958,237.948166 604.817566,221.944199 
	C607.091980,207.079117 609.060303,192.167221 611.193787,177.280273 
	C611.222412,177.080399 611.647644,176.937347 612.206421,176.890274 
	C612.507446,177.460541 612.489807,177.908295 612.378174,178.916870 
	C612.351318,179.635910 612.418579,179.794144 612.485779,179.952393 
z"/>
<path fill="#FAFAF9" opacity="1.000000" stroke="none" 
	d="
M614.460022,274.000000 
	C617.420288,269.881958 621.481567,272.797913 625.220703,272.179443 
	C625.262451,272.786285 625.304138,273.393158 625.345886,274.000000 
	C621.870605,274.000000 618.395325,274.000000 614.460022,274.000000 
z"/>
<path fill="#FAFAF9" opacity="1.000000" stroke="none" 
	d="
M612.213135,276.953796 
	C611.778076,276.243011 611.700134,275.488312 611.741882,274.368958 
	C612.336792,274.002899 612.812012,274.001434 613.643616,274.000000 
	C613.523438,274.969971 613.046875,275.939941 612.213135,276.953796 
z"/>
<path fill="#FAFAF9" opacity="1.000000" stroke="none" 
	d="
M611.565552,260.292969 
	C611.821960,261.725159 611.847534,263.417908 611.754395,265.517700 
	C611.535339,264.134338 611.434998,262.343903 611.565552,260.292969 
z"/>
<path fill="#FAFAF9" opacity="1.000000" stroke="none" 
	d="
M611.509766,247.056229 
	C611.873352,247.751175 611.921814,248.504593 611.897827,249.630127 
	C611.615173,249.039734 611.404968,248.077225 611.509766,247.056229 
z"/>
<path fill="#8F8E93" opacity="1.000000" stroke="none" 
	d="
M612.554260,190.628448 
	C612.292053,188.576401 612.257935,186.240463 612.392334,183.505112 
	C612.634705,185.518646 612.708496,187.931625 612.554260,190.628448 
z"/>
<path fill="#8F8E93" opacity="1.000000" stroke="none" 
	d="
M612.623413,179.878357 
	C612.418579,179.794144 612.351318,179.635910 612.404785,179.251633 
	C612.834473,179.195892 612.913025,179.455460 612.623413,179.878357 
z"/>
</svg>