<svg version="1.1" id="Layer_1" xmlns="http://www.w3.org/2000/svg" xmlns:xlink="http://www.w3.org/1999/xlink" x="0px" y="0px"
	 width="100%" viewBox="0 0 748 386" enable-background="new 0 0 748 386" xml:space="preserve">
<path fill="#FFFFFF" opacity="1.000000" stroke="none" 
	d="
M1.000000,301.000000 
	C1.000000,201.084000 1.000000,101.168015 1.000000,1.000000 
	C74.354034,1.000000 147.708359,1.000000 221.360626,1.375168 
	C219.394089,2.032367 217.071060,2.082005 214.874863,2.635160 
	C203.009232,5.623760 193.074646,18.170301 193.889862,32.029354 
	C194.793320,47.388622 206.143311,59.855946 223.485748,59.905205 
	C241.622147,59.930473 259.296356,59.883987 277.436157,59.909409 
	C296.543152,59.940037 315.184540,59.898762 334.291016,59.905415 
	C337.739319,59.847015 340.821930,60.190437 343.688660,59.556843 
	C356.390320,56.749580 367.608734,46.772987 367.233185,29.031637 
	C366.978180,16.984766 356.326447,4.614036 344.621002,2.079230 
	C342.756836,1.675546 340.874146,1.357589 339.000000,1.000000 
	C366.687561,1.000000 394.375122,1.000000 422.337036,1.357539 
	C405.656250,1.957064 395.509186,16.741343 394.962219,29.950712 
	C394.283661,46.338367 409.377869,62.259747 428.497162,59.905441 
	C447.653229,59.926819 466.347351,59.880192 485.431671,59.901817 
	C486.876404,59.929550 487.930878,59.889034 489.314514,59.919456 
	C490.087585,59.943295 490.531525,59.896187 491.443481,59.913628 
	C507.596710,59.929775 523.281921,59.881378 539.395203,59.904289 
	C558.523438,59.195938 569.331299,45.289314 568.644897,30.031681 
	C568.032715,16.421457 561.988525,7.000348 546.884033,2.422742 
	C544.650757,1.745923 542.297668,1.464409 540.000000,1.000002 
	C609.608276,1.000000 679.216492,1.000000 749.000000,1.000000 
	C749.000000,105.020828 749.000000,209.041763 748.608276,313.361633 
	C747.806274,309.926605 747.813965,306.088959 746.917847,302.475525 
	C741.189697,279.378052 720.574158,268.611084 698.443237,272.794556 
	C690.662903,274.265228 684.848267,278.373413 679.000000,284.434967 
	C679.000000,282.374390 679.012146,281.275085 678.997925,280.176117 
	C678.916382,273.861328 678.074585,273.006226 671.945007,273.000458 
	C669.114746,272.997803 666.284363,272.991241 663.454163,273.001801 
	C657.504883,273.023956 657.003479,273.530243 657.002502,279.664215 
	C656.997253,313.128235 657.081238,346.592743 656.882446,380.055573 
	C656.861023,383.658264 657.839111,385.738220 661.000000,387.000000 
	C441.000000,387.000000 220.999985,387.000000 1.000000,387.000000 
	C1.000000,359.905579 1.000000,332.921448 1.392098,305.638916 
	C2.262394,309.734100 2.077857,314.326477 3.326608,318.488861 
	C11.281396,345.004150 32.614368,359.473511 58.476059,360.909668 
	C74.475632,361.798157 89.305023,357.121063 102.903198,348.854004 
	C104.863174,347.662415 106.756882,344.593414 106.819832,342.341187 
	C107.187317,329.192139 107.020882,316.027527 106.990089,302.868286 
	C106.977074,297.303955 105.649246,296.026764 99.969543,296.006866 
	C92.140671,295.979462 84.311630,295.995178 76.482666,296.001068 
	C61.282101,296.012451 63.220917,294.461761 62.910515,309.632019 
	C62.809559,314.566010 65.067207,316.031952 69.375938,316.007904 
	C75.149231,315.975647 80.922852,315.999878 86.999252,315.999878 
	C86.999252,321.156616 87.163536,325.799561 86.900986,330.418213 
	C86.820290,331.837585 85.934158,333.844421 84.801811,334.471283 
	C75.190239,339.792114 64.815491,342.010956 54.059418,339.464172 
	C36.659664,335.344330 23.833002,319.580719 24.852242,300.807312 
	C26.042150,278.890411 44.855236,265.202057 63.460789,265.356445 
	C70.691612,265.416382 78.177208,268.727081 85.036644,271.724396 
	C95.636940,276.356323 95.451096,276.781647 103.103683,268.381561 
	C107.580376,263.467590 107.300972,260.508453 101.726753,256.983429 
	C82.000023,244.508667 61.076851,241.280487 38.951748,249.570862 
	C19.633568,256.809509 7.076440,270.169586 2.973839,290.793701 
	C2.297801,294.192230 1.657055,297.597717 1.000000,301.000000 
M366.739685,168.472488 
	C366.782471,151.344620 366.825256,134.216736 366.957062,116.206581 
	C368.437683,101.617462 352.851868,86.284523 336.990356,88.033653 
	C321.240143,88.169563 305.489960,88.305481 288.962158,88.387306 
	C284.076813,88.358841 279.033447,87.526230 274.335205,88.449661 
	C259.011108,91.461601 248.191528,106.682823 252.102142,123.718422 
	C254.862274,135.742126 266.118042,146.380264 279.549042,146.052307 
	C289.338593,145.813278 299.139771,146.051819 308.990662,146.999832 
	C308.993713,156.326828 309.332611,165.668503 308.926300,174.977631 
	C308.196228,191.704224 326.307922,206.545486 343.332550,203.391327 
	C358.592346,200.564148 370.706512,184.089584 366.739685,168.472488 
M475.519989,88.194649 
	C458.365814,88.185226 441.211609,88.175804 423.188416,88.034187 
	C408.036438,87.750557 394.836945,100.705269 395.029541,117.969002 
	C395.077850,135.660156 395.126160,153.351318 395.055176,171.932587 
	C393.372375,193.372040 414.267517,209.595673 434.641418,201.932327 
	C448.040680,196.892380 453.300415,186.959946 453.929565,173.022385 
	C454.334625,164.049622 454.058044,155.046066 455.012909,146.008957 
	C464.164612,146.005997 473.316345,145.982147 482.467987,146.005630 
	C492.800018,146.032150 500.705414,141.428543 506.367371,133.051453 
	C513.289001,122.810707 512.768433,109.739914 504.864685,98.700409 
	C499.503235,91.211823 488.137787,85.494614 475.519989,88.194649 
M228.002533,302.736542 
	C227.667953,309.322632 226.842773,315.927673 227.096588,322.490997 
	C227.703674,338.188904 235.910843,349.214142 249.652130,356.141266 
	C260.565491,361.642792 272.375061,362.603821 283.896912,359.304047 
	C290.989319,357.272858 297.554199,353.067871 303.943024,349.163239 
	C305.398834,348.273468 306.269196,344.113373 305.484741,342.283264 
	C302.573730,335.491821 296.664551,334.110413 290.222412,337.943939 
	C288.562866,338.931488 286.790985,339.761444 285.001190,340.493866 
	C272.686066,345.533752 258.663666,342.334930 253.023041,332.382141 
	C252.001923,330.580383 250.912170,327.667145 251.685654,326.314056 
	C252.500412,324.888733 255.504471,324.117218 257.562988,324.095337 
	C273.725983,323.923401 289.891815,323.960205 306.056305,324.032074 
	C309.475220,324.047272 312.708191,323.442688 312.888916,319.535187 
	C313.392853,308.640289 311.721375,298.060791 305.981445,288.561401 
	C299.991333,278.648041 290.508636,273.683014 279.461517,272.357788 
	C267.835175,270.963165 256.437805,271.931091 245.910172,278.402710 
	C236.768631,284.022247 231.552521,292.207764 228.002533,302.736542 
M480.000000,334.499969 
	C480.000031,341.166260 480.110596,347.835022 479.959137,354.497894 
	C479.866425,358.577942 481.635590,360.228851 485.630524,360.031372 
	C488.789276,359.875214 491.962189,360.025543 495.128357,359.994507 
	C501.068451,359.936279 501.995880,359.002258 501.998413,353.124268 
	C502.003723,340.851624 502.000000,328.579010 502.000000,316.000000 
	C513.667908,316.000000 524.802673,316.000000 535.937500,316.000000 
	C548.036438,316.000000 548.036377,316.000000 547.999939,303.658661 
	C547.980591,297.097931 546.887268,296.006348 540.254272,296.002258 
	C527.636719,295.994476 515.019165,296.000000 502.002258,296.000000 
	C502.002258,287.439575 501.881012,279.313141 502.061859,271.193390 
	C502.134308,267.939667 503.536591,265.852600 507.556854,265.920135 
	C520.385864,266.135651 533.220703,266.000000 546.053284,266.000000 
	C556.609131,266.000031 556.609192,266.000031 558.845459,256.410614 
	C560.392700,249.775757 557.412903,246.000946 550.621643,246.000504 
	C529.289551,245.999146 507.957428,245.995621 486.625336,246.002777 
	C480.513580,246.004822 480.005249,246.499374 480.003479,252.504715 
	C479.995514,279.503143 480.000000,306.501587 480.000000,334.499969 
M125.000000,283.590576 
	C125.000000,299.246735 124.726685,314.910492 125.162170,330.554535 
	C125.297462,335.414734 126.597420,340.577332 128.670624,344.987305 
	C135.473907,359.458862 152.419769,363.705597 168.209946,359.282135 
	C175.299469,357.296082 181.385468,353.591278 186.001205,346.344543 
	C186.001205,349.905853 185.385574,352.468292 186.170609,354.485687 
	C186.990997,356.593964 188.930893,359.396790 190.784195,359.743591 
	C194.967148,360.526367 199.455078,360.378448 203.699799,359.773468 
	C205.301895,359.545135 207.801620,357.022705 207.816208,355.525818 
	C208.069336,329.545685 208.076202,303.561523 207.804535,277.581787 
	C207.788422,276.039917 205.186966,273.637543 203.405075,273.201019 
	C200.419586,272.469696 197.110107,273.196045 193.963562,272.957794 
	C188.075943,272.511963 185.922287,272.855743 185.980576,281.278137 
	C186.058960,292.603394 186.070297,303.930267 185.953705,315.254822 
	C185.922058,318.329437 185.741943,321.515442 184.914734,324.448639 
	C181.943848,334.983032 172.490646,340.984009 162.882858,339.842102 
	C153.225174,338.694214 146.994415,332.416229 146.998795,320.586243 
	C147.003967,306.595612 146.929138,292.604370 147.044769,278.614685 
	C147.077820,274.618530 145.559082,272.800385 141.488556,272.966644 
	C137.664185,273.122864 133.826828,273.068207 129.998077,272.980499 
	C126.397598,272.898010 124.850952,274.627686 124.990242,278.127808 
	C125.049805,279.624420 125.000069,281.125397 125.000000,283.590576 
M370.287231,359.999725 
	C372.765594,359.328430 375.304260,358.824860 377.712585,357.958801 
	C393.903473,352.136261 397.816071,339.820770 393.857910,325.258911 
	C391.269745,315.737183 382.690155,312.213013 374.399353,309.046631 
	C367.648651,306.468384 360.584320,304.672913 353.942780,301.860352 
	C349.312408,299.899445 348.280365,294.318268 351.733337,291.934357 
	C353.896088,290.441223 356.822296,288.994720 359.273132,289.190399 
	C365.038757,289.650665 371.225616,290.020874 376.343658,292.378082 
	C388.835907,298.131714 387.932220,293.718323 392.243530,285.272095 
	C394.018555,281.794769 392.627808,279.379944 389.349976,277.776703 
	C376.540558,271.511444 362.945526,270.005005 349.292328,273.180634 
	C332.157196,277.166107 326.021820,291.820740 330.096039,305.869293 
	C333.069275,316.121429 342.070984,319.690033 350.987457,322.924805 
	C356.426422,324.898041 362.259247,325.947113 367.435822,328.416260 
	C370.154694,329.713104 372.683563,332.891083 373.647491,335.771912 
	C374.145203,337.259308 371.458435,340.594818 369.439606,341.927643 
	C367.302917,343.338287 364.160339,344.143311 361.615295,343.848267 
	C353.449005,342.901581 345.449036,341.156677 338.234375,336.745056 
	C333.717651,333.983063 331.188751,334.990570 328.580627,339.886505 
	C324.496460,347.553375 324.768250,349.723450 330.040771,352.536438 
	C342.388519,359.124176 355.291687,362.725037 370.287231,359.999725 
M461.000000,277.745789 
	C461.539093,273.977203 459.852478,272.719238 456.167114,272.939636 
	C451.849854,273.197723 447.503723,273.076324 443.173126,272.981750 
	C436.854706,272.843781 435.028076,270.945221 435.003174,264.704193 
	C434.986542,260.538239 434.787689,256.358429 435.055298,252.209686 
	C435.369354,247.340485 433.217468,245.579926 428.574097,245.963577 
	C426.091461,246.168686 423.577881,245.998138 421.078278,246.000366 
	C414.820190,246.005951 413.015167,247.821609 413.005463,254.238983 
	C412.986755,266.570374 412.873657,278.903442 413.031555,291.232849 
	C413.235413,307.150238 413.308563,323.083588 414.147430,338.972656 
	C414.581573,347.195618 419.148865,353.646759 426.463806,357.787262 
	C434.751862,362.478577 443.439972,361.687988 451.975281,358.892120 
	C459.335663,356.481049 462.467590,355.854645 459.096252,345.280029 
	C457.364899,339.849335 454.898743,338.347351 449.176300,340.292450 
	C441.228058,342.994080 436.893494,340.632294 436.116486,332.476013 
	C435.240784,323.284180 435.164581,314.002625 435.040802,304.756042 
	C434.875732,292.422821 435.418915,292.006836 447.689728,291.998260 
	C462.522949,291.987885 460.982300,293.523590 461.000000,277.745789 
M576.000000,307.500000 
	C576.000000,321.811554 575.999207,336.123138 576.000366,350.434692 
	C576.001038,358.815063 577.207397,359.999908 585.728333,360.000031 
	C587.558899,360.000061 589.389404,360.003418 591.219971,359.999390 
	C597.569397,359.985321 597.997192,359.564697 597.998047,353.167572 
	C598.002319,321.881836 598.004883,290.596100 597.997803,259.310364 
	C597.994446,244.482025 599.514587,246.013977 584.717651,246.001266 
	C577.625793,245.995178 576.007019,247.578659 576.003113,254.578995 
	C575.993530,271.885986 576.000000,289.192993 576.000000,307.500000 
M639.000000,318.500000 
	C639.000000,306.185760 639.010376,293.871521 638.996277,281.557281 
	C638.987244,273.661224 638.338257,273.000519 630.804016,273.000031 
	C627.975037,272.999878 625.122986,273.228882 622.322571,272.946045 
	C618.186462,272.528290 616.871155,274.000427 616.907288,278.245605 
	C617.102844,301.208344 617.007751,324.173615 616.997070,347.138031 
	C616.990540,361.309021 615.686462,360.019379 629.731628,360.001709 
	C637.532715,359.991882 638.985229,358.517639 638.996460,350.452026 
	C639.010925,340.134674 639.000000,329.817352 639.000000,318.500000 
M627.505615,262.000000 
	C633.138916,261.500793 637.176697,258.731750 637.981018,254.815918 
	C639.171082,249.022354 637.672913,244.151169 634.041748,242.007446 
	C629.266663,239.188416 624.202698,239.189209 620.365051,242.303894 
	C616.228394,245.661209 616.327637,250.517731 617.189697,254.961853 
	C618.108154,259.696930 622.264343,261.311768 627.505615,262.000000 
z"/>
<path fill="#2C2D48" opacity="1.000000" stroke="none" 
	d="
M1.000000,301.399994 
	C1.657055,297.597717 2.297801,294.192230 2.973839,290.793701 
	C7.076440,270.169586 19.633568,256.809509 38.951748,249.570862 
	C61.076851,241.280487 82.000023,244.508667 101.726753,256.983429 
	C107.300972,260.508453 107.580376,263.467590 103.103683,268.381561 
	C95.451096,276.781647 95.636940,276.356323 85.036644,271.724396 
	C78.177208,268.727081 70.691612,265.416382 63.460789,265.356445 
	C44.855236,265.202057 26.042150,278.890411 24.852242,300.807312 
	C23.833002,319.580719 36.659664,335.344330 54.059418,339.464172 
	C64.815491,342.010956 75.190239,339.792114 84.801811,334.471283 
	C85.934158,333.844421 86.820290,331.837585 86.900986,330.418213 
	C87.163536,325.799561 86.999252,321.156616 86.999252,315.999878 
	C80.922852,315.999878 75.149231,315.975647 69.375938,316.007904 
	C65.067207,316.031952 62.809559,314.566010 62.910515,309.632019 
	C63.220917,294.461761 61.282101,296.012451 76.482666,296.001068 
	C84.311630,295.995178 92.140671,295.979462 99.969543,296.006866 
	C105.649246,296.026764 106.977074,297.303955 106.990089,302.868286 
	C107.020882,316.027527 107.187317,329.192139 106.819832,342.341187 
	C106.756882,344.593414 104.863174,347.662415 102.903198,348.854004 
	C89.305023,357.121063 74.475632,361.798157 58.476059,360.909668 
	C32.614368,359.473511 11.281396,345.004150 3.326608,318.488861 
	C2.077857,314.326477 2.262394,309.734100 1.392098,305.170288 
	C1.000000,303.933319 1.000000,302.866669 1.000000,301.399994 
z"/>
<path fill="#2C2D48" opacity="1.000000" stroke="none" 
	d="
M661.464661,387.000000 
	C657.839111,385.738220 656.861023,383.658264 656.882446,380.055573 
	C657.081238,346.592743 656.997253,313.128235 657.002502,279.664215 
	C657.003479,273.530243 657.504883,273.023956 663.454163,273.001801 
	C666.284363,272.991241 669.114746,272.997803 671.945007,273.000458 
	C678.074585,273.006226 678.916382,273.861328 678.997925,280.176117 
	C679.012146,281.275085 679.000000,282.374390 679.000000,284.434967 
	C684.848267,278.373413 690.662903,274.265228 698.443237,272.794556 
	C720.574158,268.611084 741.189697,279.378052 746.917847,302.475525 
	C747.813965,306.088959 747.806274,309.926605 748.608276,313.830261 
	C749.000000,315.388885 749.000000,316.777802 748.608276,318.753052 
	C748.314941,331.451508 744.552612,342.444305 735.699097,350.516052 
	C722.331909,362.702972 701.758118,364.588379 686.109619,354.704834 
	C684.747009,353.844208 682.286987,352.926483 681.389709,353.550171 
	C680.089294,354.454102 679.168701,356.717926 679.102966,358.440491 
	C678.849426,365.083801 678.811401,371.749969 679.073425,378.392609 
	C679.221863,382.154663 678.072571,384.940338 675.000000,387.000000 
	C670.643127,387.000000 666.286194,387.000000 661.464661,387.000000 
M717.973083,296.461151 
	C709.307678,288.310486 694.958801,288.935577 686.718994,296.653809 
	C679.627686,303.296234 678.124268,311.524872 679.068787,320.423859 
	C680.829407,337.012970 697.530579,345.979187 711.878357,339.646057 
	C728.780701,332.185394 730.226013,307.498535 717.973083,296.461151 
z"/>
<path fill="#EF4E36" opacity="1.000000" stroke="none" 
	d="
M485.041443,59.833561 
	C466.347351,59.880192 447.653229,59.926819 428.732056,59.630310 
	C443.571625,56.324871 452.601227,46.048153 452.772003,31.349665 
	C452.916412,18.921097 462.407959,5.409371 475.294586,2.956637 
	C477.790588,2.321060 479.895294,1.660530 482.000000,0.999999 
	C500.687561,1.000000 519.375122,1.000000 538.279724,1.284915 
	C538.023621,1.707231 537.558716,1.917226 537.076233,1.971494 
	C522.116211,3.654194 510.757111,15.750902 510.807556,30.127720 
	C510.844177,40.565834 506.514374,49.410751 497.034698,55.018299 
	C494.951935,56.250320 492.988525,57.684128 490.972717,59.231022 
	C490.975250,59.437035 490.975433,59.849087 490.975433,59.849083 
	C490.531525,59.896187 490.087585,59.943295 489.094299,59.686699 
	C487.377106,59.533188 486.209259,59.683372 485.041443,59.833561 
z"/>
<path fill="#00AFEF" opacity="1.000000" stroke="none" 
	d="
M333.825958,59.857483 
	C315.184540,59.898762 296.543152,59.940037 277.202087,59.670525 
	C274.982361,58.922306 273.462311,58.484875 271.588562,57.991730 
	C258.571381,52.670021 252.033691,43.406006 251.905273,29.467205 
	C251.803192,18.388189 243.404022,7.425493 232.862335,3.845314 
	C229.626068,2.746203 226.290237,1.940215 223.000000,1.000001 
	C242.020889,1.000000 261.041779,1.000000 280.747253,1.289542 
	C283.350067,2.008590 285.268341,2.438096 287.549500,2.916732 
	C298.721069,6.526338 306.305695,13.126542 308.379120,24.837149 
	C309.316345,30.130646 309.418671,35.687435 311.131439,40.704292 
	C314.783752,51.402271 323.329132,56.937138 333.825958,59.857483 
z"/>
<path fill="#91D8F7" opacity="1.000000" stroke="none" 
	d="
M334.291016,59.905411 
	C323.329132,56.937138 314.783752,51.402271 311.131439,40.704292 
	C309.418671,35.687435 309.316345,30.130646 308.379120,24.837149 
	C306.305695,13.126542 298.721069,6.526338 287.829834,2.636752 
	C302.789673,2.204898 317.832428,2.132967 332.873932,1.957002 
	C334.586121,1.936972 336.291473,1.333133 338.000000,0.999999 
	C338.000000,1.000000 338.500000,1.000000 338.750000,1.000000 
	C340.874146,1.357589 342.756836,1.675546 344.621002,2.079230 
	C356.326447,4.614036 366.978180,16.984766 367.233185,29.031637 
	C367.608734,46.772987 356.390320,56.749580 343.688660,59.556843 
	C340.821930,60.190437 337.739319,59.847015 334.291016,59.905411 
z"/>
<path fill="#FFCC29" opacity="1.000000" stroke="none" 
	d="
M474.903290,2.931682 
	C462.407959,5.409371 452.916412,18.921097 452.772003,31.349665 
	C452.601227,46.048153 443.571625,56.324871 428.270081,59.562309 
	C409.377869,62.259747 394.283661,46.338367 394.962219,29.950712 
	C395.509186,16.741343 405.656250,1.957064 422.805695,1.357539 
	C423.000000,1.000000 423.500000,1.000000 424.038055,1.304050 
	C439.631042,1.738454 454.686371,1.840268 469.740417,2.038206 
	C471.464996,2.060881 473.182495,2.620842 474.903290,2.931682 
z"/>
<path fill="#017DB9" opacity="1.000000" stroke="none" 
	d="
M222.750000,1.000001 
	C226.290237,1.940215 229.626068,2.746203 232.862335,3.845314 
	C243.404022,7.425493 251.803192,18.388189 251.905273,29.467205 
	C252.033691,43.406006 258.571381,52.670021 271.300903,58.283829 
	C256.995636,58.754581 242.623993,58.850727 228.253479,59.035229 
	C226.507050,59.057652 224.766724,59.555786 223.023575,59.833450 
	C206.143311,59.855946 194.793320,47.388622 193.889862,32.029354 
	C193.074646,18.170301 203.009232,5.623760 214.874863,2.635160 
	C217.071060,2.082005 219.394089,2.032367 221.829285,1.375168 
	C222.000000,1.000000 222.500000,1.000000 222.750000,1.000001 
z"/>
<path fill="#CA3438" opacity="1.000000" stroke="none" 
	d="
M490.970154,59.025009 
	C492.988525,57.684128 494.951935,56.250320 497.034698,55.018299 
	C506.514374,49.410751 510.844177,40.565834 510.807556,30.127720 
	C510.757111,15.750902 522.116211,3.654194 537.076233,1.971494 
	C537.558716,1.917226 538.023621,1.707231 538.748413,1.284915 
	C539.000000,1.000000 539.500000,1.000000 539.750000,1.000002 
	C542.297668,1.464409 544.650757,1.745923 546.884033,2.422742 
	C561.988525,7.000348 568.032715,16.421457 568.644897,30.031681 
	C569.331299,45.289314 558.523438,59.195938 539.077637,59.642902 
	C522.544739,59.215141 506.757446,59.120079 490.970154,59.025009 
z"/>
<path fill="#FFFFFF" opacity="1.000000" stroke="none" 
	d="
M675.468628,387.000000 
	C678.072571,384.940338 679.221863,382.154663 679.073425,378.392609 
	C678.811401,371.749969 678.849426,365.083801 679.102966,358.440491 
	C679.168701,356.717926 680.089294,354.454102 681.389709,353.550171 
	C682.286987,352.926483 684.747009,353.844208 686.109619,354.704834 
	C701.758118,364.588379 722.331909,362.702972 735.699097,350.516052 
	C744.552612,342.444305 748.314941,331.451508 748.608276,319.169739 
	C749.000000,341.596619 749.000000,364.193237 749.000000,387.000000 
	C724.646179,387.000000 700.291748,387.000000 675.468628,387.000000 
z"/>
<path fill="#F88E2F" opacity="1.000000" stroke="none" 
	d="
M475.294586,2.956636 
	C473.182495,2.620842 471.464996,2.060881 469.740417,2.038206 
	C454.686371,1.840268 439.631042,1.738454 424.288055,1.304050 
	C443.020905,1.000000 462.041779,1.000000 481.531342,0.999999 
	C479.895294,1.660530 477.790588,2.321060 475.294586,2.956636 
z"/>
<path fill="#49C4F3" opacity="1.000000" stroke="none" 
	d="
M337.531342,0.999999 
	C336.291473,1.333133 334.586121,1.936972 332.873932,1.957002 
	C317.832428,2.132967 302.789673,2.204898 287.466980,2.587623 
	C285.268341,2.438096 283.350067,2.008590 281.215881,1.289542 
	C299.687561,1.000000 318.375122,1.000000 337.531342,0.999999 
z"/>
<path fill="#2C2D48" opacity="1.000000" stroke="none" 
	d="
M228.019562,302.314575 
	C231.552521,292.207764 236.768631,284.022247 245.910172,278.402710 
	C256.437805,271.931091 267.835175,270.963165 279.461517,272.357788 
	C290.508636,273.683014 299.991333,278.648041 305.981445,288.561401 
	C311.721375,298.060791 313.392853,308.640289 312.888916,319.535187 
	C312.708191,323.442688 309.475220,324.047272 306.056305,324.032074 
	C289.891815,323.960205 273.725983,323.923401 257.562988,324.095337 
	C255.504471,324.117218 252.500412,324.888733 251.685654,326.314056 
	C250.912170,327.667145 252.001923,330.580383 253.023041,332.382141 
	C258.663666,342.334930 272.686066,345.533752 285.001190,340.493866 
	C286.790985,339.761444 288.562866,338.931488 290.222412,337.943939 
	C296.664551,334.110413 302.573730,335.491821 305.484741,342.283264 
	C306.269196,344.113373 305.398834,348.273468 303.943024,349.163239 
	C297.554199,353.067871 290.989319,357.272858 283.896912,359.304047 
	C272.375061,362.603821 260.565491,361.642792 249.652130,356.141266 
	C235.910843,349.214142 227.703674,338.188904 227.096588,322.490997 
	C226.842773,315.927673 227.667953,309.322632 228.019562,302.314575 
M271.498932,309.000000 
	C276.489746,308.999664 281.483337,309.101105 286.470520,308.966492 
	C290.415253,308.860046 292.622131,306.285675 291.674194,303.242279 
	C289.053436,294.828186 280.704224,289.046722 271.130188,288.997955 
	C263.035675,288.956726 252.628708,294.811737 250.713852,302.633759 
	C249.631836,307.053711 250.582458,308.898682 255.028946,308.978333 
	C260.184479,309.070770 265.342926,308.999969 271.498932,309.000000 
z"/>
<path fill="#2C2D48" opacity="1.000000" stroke="none" 
	d="
M480.000000,334.000000 
	C480.000000,306.501587 479.995514,279.503143 480.003479,252.504715 
	C480.005249,246.499374 480.513580,246.004822 486.625336,246.002777 
	C507.957428,245.995621 529.289551,245.999146 550.621643,246.000504 
	C557.412903,246.000946 560.392700,249.775757 558.845459,256.410614 
	C556.609192,266.000031 556.609131,266.000031 546.053284,266.000000 
	C533.220703,266.000000 520.385864,266.135651 507.556854,265.920135 
	C503.536591,265.852600 502.134308,267.939667 502.061859,271.193390 
	C501.881012,279.313141 502.002258,287.439575 502.002258,296.000000 
	C515.019165,296.000000 527.636719,295.994476 540.254272,296.002258 
	C546.887268,296.006348 547.980591,297.097931 547.999939,303.658661 
	C548.036377,316.000000 548.036438,316.000000 535.937500,316.000000 
	C524.802673,316.000000 513.667908,316.000000 502.000000,316.000000 
	C502.000000,328.579010 502.003723,340.851624 501.998413,353.124268 
	C501.995880,359.002258 501.068451,359.936279 495.128357,359.994507 
	C491.962189,360.025543 488.789276,359.875214 485.630524,360.031372 
	C481.635590,360.228851 479.866425,358.577942 479.959137,354.497894 
	C480.110596,347.835022 480.000031,341.166260 480.000000,334.000000 
z"/>
<path fill="#2C2D48" opacity="1.000000" stroke="none" 
	d="
M125.000000,283.107483 
	C125.000069,281.125397 125.049805,279.624420 124.990242,278.127808 
	C124.850952,274.627686 126.397598,272.898010 129.998077,272.980499 
	C133.826828,273.068207 137.664185,273.122864 141.488556,272.966644 
	C145.559082,272.800385 147.077820,274.618530 147.044769,278.614685 
	C146.929138,292.604370 147.003967,306.595612 146.998795,320.586243 
	C146.994415,332.416229 153.225174,338.694214 162.882858,339.842102 
	C172.490646,340.984009 181.943848,334.983032 184.914734,324.448639 
	C185.741943,321.515442 185.922058,318.329437 185.953705,315.254822 
	C186.070297,303.930267 186.058960,292.603394 185.980576,281.278137 
	C185.922287,272.855743 188.075943,272.511963 193.963562,272.957794 
	C197.110107,273.196045 200.419586,272.469696 203.405075,273.201019 
	C205.186966,273.637543 207.788422,276.039917 207.804535,277.581787 
	C208.076202,303.561523 208.069336,329.545685 207.816208,355.525818 
	C207.801620,357.022705 205.301895,359.545135 203.699799,359.773468 
	C199.455078,360.378448 194.967148,360.526367 190.784195,359.743591 
	C188.930893,359.396790 186.990997,356.593964 186.170609,354.485687 
	C185.385574,352.468292 186.001205,349.905853 186.001205,346.344543 
	C181.385468,353.591278 175.299469,357.296082 168.209946,359.282135 
	C152.419769,363.705597 135.473907,359.458862 128.670624,344.987305 
	C126.597420,340.577332 125.297462,335.414734 125.162170,330.554535 
	C124.726685,314.910492 125.000000,299.246735 125.000000,283.107483 
z"/>
<path fill="#2C2D48" opacity="1.000000" stroke="none" 
	d="
M369.843689,359.999878 
	C355.291687,362.725037 342.388519,359.124176 330.040771,352.536438 
	C324.768250,349.723450 324.496460,347.553375 328.580627,339.886505 
	C331.188751,334.990570 333.717651,333.983063 338.234375,336.745056 
	C345.449036,341.156677 353.449005,342.901581 361.615295,343.848267 
	C364.160339,344.143311 367.302917,343.338287 369.439606,341.927643 
	C371.458435,340.594818 374.145203,337.259308 373.647491,335.771912 
	C372.683563,332.891083 370.154694,329.713104 367.435822,328.416260 
	C362.259247,325.947113 356.426422,324.898041 350.987457,322.924805 
	C342.070984,319.690033 333.069275,316.121429 330.096039,305.869293 
	C326.021820,291.820740 332.157196,277.166107 349.292328,273.180634 
	C362.945526,270.005005 376.540558,271.511444 389.349976,277.776703 
	C392.627808,279.379944 394.018555,281.794769 392.243530,285.272095 
	C387.932220,293.718323 388.835907,298.131714 376.343658,292.378082 
	C371.225616,290.020874 365.038757,289.650665 359.273132,289.190399 
	C356.822296,288.994720 353.896088,290.441223 351.733337,291.934357 
	C348.280365,294.318268 349.312408,299.899445 353.942780,301.860352 
	C360.584320,304.672913 367.648651,306.468384 374.399353,309.046631 
	C382.690155,312.213013 391.269745,315.737183 393.857910,325.258911 
	C397.816071,339.820770 393.903473,352.136261 377.712585,357.958801 
	C375.304260,358.824860 372.765594,359.328430 369.843689,359.999878 
z"/>
<path fill="#2C2D48" opacity="1.000000" stroke="none" 
	d="
M461.000000,278.214600 
	C460.982300,293.523590 462.522949,291.987885 447.689728,291.998260 
	C435.418915,292.006836 434.875732,292.422821 435.040802,304.756042 
	C435.164581,314.002625 435.240784,323.284180 436.116486,332.476013 
	C436.893494,340.632294 441.228058,342.994080 449.176300,340.292450 
	C454.898743,338.347351 457.364899,339.849335 459.096252,345.280029 
	C462.467590,355.854645 459.335663,356.481049 451.975281,358.892120 
	C443.439972,361.687988 434.751862,362.478577 426.463806,357.787262 
	C419.148865,353.646759 414.581573,347.195618 414.147430,338.972656 
	C413.308563,323.083588 413.235413,307.150238 413.031555,291.232849 
	C412.873657,278.903442 412.986755,266.570374 413.005463,254.238983 
	C413.015167,247.821609 414.820190,246.005951 421.078278,246.000366 
	C423.577881,245.998138 426.091461,246.168686 428.574097,245.963577 
	C433.217468,245.579926 435.369354,247.340485 435.055298,252.209686 
	C434.787689,256.358429 434.986542,260.538239 435.003174,264.704193 
	C435.028076,270.945221 436.854706,272.843781 443.173126,272.981750 
	C447.503723,273.076324 451.849854,273.197723 456.167114,272.939636 
	C459.852478,272.719238 461.539093,273.977203 461.000000,278.214600 
z"/>
<path fill="#FFCC29" opacity="1.000000" stroke="none" 
	d="
M395.164093,117.045898 
	C394.836945,100.705269 408.036438,87.750557 423.935791,88.363373 
	C438.709564,88.794838 452.736298,88.866951 466.761871,89.038063 
	C468.488739,89.059128 470.209167,89.608696 471.622589,90.066963 
	C459.351868,95.970108 452.546417,105.005257 452.955963,118.748978 
	C453.009064,120.531120 452.471924,122.330856 452.102448,124.473244 
	C447.769318,138.661987 435.144470,146.210861 424.996490,145.797958 
	C412.788422,145.301224 400.212585,154.273560 396.613586,165.618103 
	C396.213379,150.975769 396.133026,136.616425 395.963654,122.258133 
	C395.943115,120.517822 395.442322,118.783173 395.164093,117.045898 
z"/>
<path fill="#91D8F7" opacity="1.000000" stroke="none" 
	d="
M337.904907,88.135818 
	C352.851868,86.284523 368.437683,101.617462 366.639038,116.945854 
	C366.214020,131.386414 366.138214,145.088089 365.960815,158.788467 
	C365.938446,160.515518 365.381592,162.235657 364.891113,163.664917 
	C360.288971,154.492355 353.720917,148.330750 343.552185,146.846359 
	C338.730865,146.142548 333.884857,145.607697 328.868683,144.700684 
	C315.437744,138.578873 309.173004,128.521683 308.851349,113.959953 
	C308.683258,106.351341 305.175781,99.562691 298.628571,94.915657 
	C295.690796,92.830513 292.668152,90.864983 290.182526,88.899704 
	C305.008850,88.969086 319.336731,89.008133 333.664337,88.960899 
	C335.078735,88.956238 336.491425,88.423470 337.904907,88.135818 
z"/>
<path fill="#CA3438" opacity="1.000000" stroke="none" 
	d="
M396.906494,165.901413 
	C400.212585,154.273560 412.788422,145.301224 424.996490,145.797958 
	C435.144470,146.210861 447.769318,138.661987 452.358490,124.780525 
	C452.813995,128.179535 452.805847,131.628693 453.029175,135.062805 
	C453.268005,138.734711 453.725128,142.392410 454.086975,146.056320 
	C454.058044,155.046066 454.334625,164.049622 453.929565,173.022385 
	C453.300415,186.959946 448.040680,196.892380 434.641418,201.932327 
	C414.267517,209.595673 393.372375,193.372040 395.348633,171.238220 
	C396.063568,168.996368 396.485046,167.448898 396.906494,165.901413 
z"/>
<path fill="#00AFEF" opacity="1.000000" stroke="none" 
	d="
M289.684021,88.845177 
	C292.668152,90.864983 295.690796,92.830513 298.628571,94.915657 
	C305.175781,99.562691 308.683258,106.351341 308.851349,113.959953 
	C309.173004,128.521683 315.437744,138.578873 328.578613,145.009888 
	C321.958496,145.768936 315.447144,145.923187 308.935760,146.077438 
	C299.139771,146.051819 289.338593,145.813278 279.549042,146.052307 
	C266.118042,146.380264 254.862274,135.742126 252.102142,123.718422 
	C248.191528,106.682823 259.011108,91.461601 274.335205,88.449661 
	C279.033447,87.526230 284.076813,88.358841 289.305420,88.510696 
	C289.648712,88.634087 289.684021,88.845177 289.684021,88.845177 
z"/>
<path fill="#EF4E36" opacity="1.000000" stroke="none" 
	d="
M454.549927,146.032639 
	C453.725128,142.392410 453.268005,138.734711 453.029175,135.062805 
	C452.805847,131.628693 452.813995,128.179535 452.464233,124.429726 
	C452.471924,122.330856 453.009064,120.531120 452.955963,118.748978 
	C452.546417,105.005257 459.351868,95.970108 471.981018,90.061691 
	C473.779877,89.558128 474.910278,89.213455 476.040680,88.868782 
	C488.137787,85.494614 499.503235,91.211823 504.864685,98.700409 
	C512.768433,109.739914 513.289001,122.810707 506.367371,133.051453 
	C500.705414,141.428543 492.800018,146.032150 482.467987,146.005630 
	C473.316345,145.982147 464.164612,146.005997 454.549927,146.032639 
z"/>
<path fill="#017DB9" opacity="1.000000" stroke="none" 
	d="
M308.963196,146.538635 
	C315.447144,145.923187 321.958496,145.768936 328.759949,145.305481 
	C333.884857,145.607697 338.730865,146.142548 343.552185,146.846359 
	C353.720917,148.330750 360.288971,154.492355 364.863770,164.046310 
	C365.391815,166.171722 365.765839,167.621643 366.139862,169.071564 
	C370.706512,184.089584 358.592346,200.564148 343.332550,203.391327 
	C326.307922,206.545486 308.196228,191.704224 308.926300,174.977631 
	C309.332611,165.668503 308.993713,156.326828 308.963196,146.538635 
z"/>
<path fill="#2C2D48" opacity="1.000000" stroke="none" 
	d="
M576.000000,307.000000 
	C576.000000,289.192993 575.993530,271.885986 576.003113,254.578995 
	C576.007019,247.578659 577.625793,245.995178 584.717651,246.001266 
	C599.514587,246.013977 597.994446,244.482025 597.997803,259.310364 
	C598.004883,290.596100 598.002319,321.881836 597.998047,353.167572 
	C597.997192,359.564697 597.569397,359.985321 591.219971,359.999390 
	C589.389404,360.003418 587.558899,360.000061 585.728333,360.000031 
	C577.207397,359.999908 576.001038,358.815063 576.000366,350.434692 
	C575.999207,336.123138 576.000000,321.811554 576.000000,307.000000 
z"/>
<path fill="#2C2D48" opacity="1.000000" stroke="none" 
	d="
M639.000000,319.000000 
	C639.000000,329.817352 639.010925,340.134674 638.996460,350.452026 
	C638.985229,358.517639 637.532715,359.991882 629.731628,360.001709 
	C615.686462,360.019379 616.990540,361.309021 616.997070,347.138031 
	C617.007751,324.173615 617.102844,301.208344 616.907288,278.245605 
	C616.871155,274.000427 618.186462,272.528290 622.322571,272.946045 
	C625.122986,273.228882 627.975037,272.999878 630.804016,273.000031 
	C638.338257,273.000519 638.987244,273.661224 638.996277,281.557281 
	C639.010376,293.871521 639.000000,306.185760 639.000000,319.000000 
z"/>
<path fill="#2C2D48" opacity="1.000000" stroke="none" 
	d="
M627.089722,261.999878 
	C622.264343,261.311768 618.108154,259.696930 617.189697,254.961853 
	C616.327637,250.517731 616.228394,245.661209 620.365051,242.303894 
	C624.202698,239.189209 629.266663,239.188416 634.041748,242.007446 
	C637.672913,244.151169 639.171082,249.022354 637.981018,254.815918 
	C637.176697,258.731750 633.138916,261.500793 627.089722,261.999878 
z"/>
<path fill="#EC922E" opacity="1.000000" stroke="none" 
	d="
M396.613586,165.618103 
	C396.485046,167.448898 396.063568,168.996368 395.408325,170.793167 
	C395.126160,153.351318 395.077850,135.660156 395.096802,117.507446 
	C395.442322,118.783173 395.943115,120.517822 395.963654,122.258133 
	C396.133026,136.616425 396.213379,150.975769 396.613586,165.618103 
z"/>
<path fill="#008ECC" opacity="1.000000" stroke="none" 
	d="
M223.485748,59.905205 
	C224.766724,59.555786 226.507050,59.057652 228.253479,59.035229 
	C242.623993,58.850727 256.995636,58.754581 271.654602,58.339546 
	C273.462311,58.484875 274.982361,58.922306 276.736511,59.598625 
	C259.296356,59.883987 241.622147,59.930473 223.485748,59.905205 
z"/>
<path fill="#7ECCEF" opacity="1.000000" stroke="none" 
	d="
M366.439758,168.772034 
	C365.765839,167.621643 365.391815,166.171722 365.045105,164.340393 
	C365.381592,162.235657 365.938446,160.515518 365.960815,158.788467 
	C366.138214,145.088089 366.214020,131.386414 366.594543,117.386993 
	C366.825256,134.216736 366.782471,151.344620 366.439758,168.772034 
z"/>
<path fill="#FCB32B" opacity="1.000000" stroke="none" 
	d="
M475.780334,88.531708 
	C474.910278,89.213455 473.779877,89.558128 472.291016,89.908081 
	C470.209167,89.608696 468.488739,89.059128 466.761871,89.038063 
	C452.736298,88.866951 438.709564,88.794838 424.370300,88.429474 
	C441.211609,88.175804 458.365814,88.185226 475.780334,88.531708 
z"/>
<path fill="#D73D37" opacity="1.000000" stroke="none" 
	d="
M490.972717,59.231026 
	C506.757446,59.120079 522.544739,59.215141 538.649597,59.571594 
	C523.281921,59.881378 507.596710,59.929775 491.443481,59.913628 
	C490.975433,59.849087 490.975250,59.437035 490.972717,59.231026 
z"/>
<path fill="#74D1F6" opacity="1.000000" stroke="none" 
	d="
M290.182526,88.899704 
	C289.684021,88.845177 289.648712,88.634087 289.694214,88.537735 
	C305.489960,88.305481 321.240143,88.169563 337.447632,88.084732 
	C336.491425,88.423470 335.078735,88.956238 333.664337,88.960899 
	C319.336731,89.008133 305.008850,88.969086 290.182526,88.899704 
z"/>
<path fill="#D73D37" opacity="1.000000" stroke="none" 
	d="
M485.431671,59.901810 
	C486.209259,59.683372 487.377106,59.533188 488.765137,59.615761 
	C487.930878,59.889034 486.876404,59.929550 485.431671,59.901810 
z"/>
<path fill="#FFFFFF" opacity="1.000000" stroke="none" 
	d="
M718.229492,296.725922 
	C730.226013,307.498535 728.780701,332.185394 711.878357,339.646057 
	C697.530579,345.979187 680.829407,337.012970 679.068787,320.423859 
	C678.124268,311.524872 679.627686,303.296234 686.718994,296.653809 
	C694.958801,288.935577 709.307678,288.310486 718.229492,296.725922 
z"/>
<path fill="#FFFFFF" opacity="1.000000" stroke="none" 
	d="
M270.999512,309.000000 
	C265.342926,308.999969 260.184479,309.070770 255.028946,308.978333 
	C250.582458,308.898682 249.631836,307.053711 250.713852,302.633759 
	C252.628708,294.811737 263.035675,288.956726 271.130188,288.997955 
	C280.704224,289.046722 289.053436,294.828186 291.674194,303.242279 
	C292.622131,306.285675 290.415253,308.860046 286.470520,308.966492 
	C281.483337,309.101105 276.489746,308.999664 270.999512,309.000000 
z"/>
</svg>